<ttFont>
<head>
    <!-- Most of this table will be recalculated by the compiler -->
    <tableVersion value="1.0"/>
    <fontRevision value="1.208"/>
    <checkSumAdjustment value="0x6cb02934"/>
    <magicNumber value="0x5f0f3cf5"/>
    <flags value="00001000 00000011"/>
    <unitsPerEm value="1000"/>
    <created value="Thu Jan 19 02:17:38 2017"/>
    <modified value="Mon Dec 11 09:30:03 2017"/>
    <xMin value="-380"/>
    <yMin value="-211"/>
    <xMax value="964"/>
    <yMax value="984"/>
    <macStyle value="00000000 00000000"/>
    <lowestRecPPEM value="7"/>
    <fontDirectionHint value="2"/>
    <indexToLocFormat value="0"/>
    <glyphDataFormat value="0"/>
  </head>
    <TTGlyph name="A" xMin="10" yMin="0" xMax="349" yMax="700">
      <contour>
        <pt x="167" y="700" on="1"/>
        <pt x="190" y="700" on="1"/>
        <pt x="349" y="0" on="1"/>
        <pt x="327" y="0" on="1"/>
        <pt x="179" y="662" on="1"/>
        <pt x="32" y="0" on="1"/>
        <pt x="10" y="0" on="1"/>
      </contour>
      <contour>
        <pt x="58" y="176" on="1"/>
        <pt x="304" y="176" on="1"/>
        <pt x="304" y="155" on="1"/>
        <pt x="58" y="155" on="1"/>
      </contour>
    </TTGlyph>
    <TTGlyph name="AE" xMin="10" yMin="0" xMax="610" yMax="700">
      <contour>
        <pt x="326" y="700" on="1"/>
        <pt x="610" y="700" on="1"/>
        <pt x="610" y="679" on="1"/>
        <pt x="350" y="679" on="1"/>
        <pt x="350" y="21" on="1"/>
        <pt x="610" y="21" on="1"/>
        <pt x="610" y="0" on="1"/>
        <pt x="327" y="0" on="1"/>
        <pt x="328" y="660" on="1"/>
        <pt x="32" y="0" on="1"/>
        <pt x="10" y="0" on="1"/>
      </contour>
      <contour>
        <pt x="98" y="176" on="1"/>
        <pt x="344" y="176" on="1"/>
        <pt x="339" y="155" on="1"/>
        <pt x="93" y="155" on="1"/>
      </contour>
      <contour>
        <pt x="339" y="361" on="1"/>
        <pt x="527" y="361" on="1"/>
        <pt x="527" y="340" on="1"/>
        <pt x="339" y="340" on="1"/>
      </contour>
    </TTGlyph>
    <TTGlyph name="B" xMin="91" yMin="0" xMax="392" yMax="700">
      <contour>
        <pt x="91" y="373" on="1"/>
        <pt x="226" y="373" on="1"/>
        <pt x="305" y="373" on="0"/>
        <pt x="392" y="275" on="0"/>
        <pt x="392" y="186" on="1"/>
        <pt x="392" y="128" on="0"/>
        <pt x="353" y="44" on="0"/>
        <pt x="279" y="0" on="0"/>
        <pt x="228" y="0" on="1"/>
        <pt x="91" y="0" on="1"/>
      </contour>
      <contour>
        <pt x="227" y="22" on="1"/>
        <pt x="294" y="22" on="0"/>
        <pt x="370" y="109" on="0"/>
        <pt x="370" y="186" on="1"/>
        <pt x="370" y="265" on="0"/>
        <pt x="295" y="352" on="0"/>
        <pt x="227" y="352" on="1"/>
        <pt x="113" y="352" on="1"/>
        <pt x="113" y="22" on="1"/>
      </contour>
      <contour>
        <pt x="91" y="700" on="1"/>
        <pt x="227" y="700" on="1"/>
        <pt x="304" y="700" on="0"/>
        <pt x="391" y="607" on="0"/>
        <pt x="391" y="523" on="1"/>
        <pt x="391" y="469" on="0"/>
        <pt x="352" y="392" on="0"/>
        <pt x="278" y="352" on="0"/>
        <pt x="226" y="352" on="1"/>
        <pt x="91" y="352" on="1"/>
      </contour>
      <contour>
        <pt x="227" y="373" on="1"/>
        <pt x="294" y="373" on="0"/>
        <pt x="369" y="452" on="0"/>
        <pt x="369" y="523" on="1"/>
        <pt x="369" y="596" on="0"/>
        <pt x="294" y="679" on="0"/>
        <pt x="227" y="679" on="1"/>
        <pt x="113" y="679" on="1"/>
        <pt x="113" y="373" on="1"/>
      </contour>
    </TTGlyph>
    <TTGlyph name="C" xMin="70" yMin="-8" xMax="370" yMax="708">
      <contour>
        <pt x="175" y="-8" on="0"/>
        <pt x="107" y="31" on="0"/>
        <pt x="70" y="102" on="0"/>
        <pt x="70" y="148" on="1"/>
        <pt x="70" y="553" on="1"/>
        <pt x="70" y="599" on="0"/>
        <pt x="107" y="670" on="0"/>
        <pt x="175" y="708" on="0"/>
        <pt x="219" y="708" on="1"/>
        <pt x="264" y="708" on="0"/>
        <pt x="333" y="670" on="0"/>
        <pt x="370" y="600" on="0"/>
        <pt x="370" y="553" on="1"/>
        <pt x="370" y="522" on="1"/>
        <pt x="347" y="521" on="1"/>
        <pt x="347" y="554" on="1"/>
        <pt x="347" y="614" on="0"/>
        <pt x="277" y="687" on="0"/>
        <pt x="219" y="687" on="1"/>
        <pt x="162" y="687" on="0"/>
        <pt x="92" y="614" on="0"/>
        <pt x="92" y="554" on="1"/>
        <pt x="92" y="147" on="1"/>
        <pt x="92" y="87" on="0"/>
        <pt x="162" y="13" on="0"/>
        <pt x="219" y="13" on="1"/>
        <pt x="277" y="13" on="0"/>
        <pt x="347" y="87" on="0"/>
        <pt x="347" y="147" on="1"/>
        <pt x="347" y="178" on="1"/>
        <pt x="370" y="177" on="1"/>
        <pt x="370" y="148" on="1"/>
        <pt x="370" y="101" on="0"/>
        <pt x="332" y="31" on="0"/>
        <pt x="264" y="-8" on="0"/>
        <pt x="219" y="-8" on="1"/>
      </contour>
    </TTGlyph>
    <TTGlyph name="D" xMin="91" yMin="0" xMax="381" yMax="700">
      <contour>
        <pt x="91" y="700" on="1"/>
        <pt x="235" y="700" on="1"/>
        <pt x="280" y="700" on="0"/>
        <pt x="346" y="657" on="0"/>
        <pt x="381" y="576" on="0"/>
        <pt x="381" y="520" on="1"/>
        <pt x="381" y="180" on="1"/>
        <pt x="381" y="124" on="0"/>
        <pt x="346" y="43" on="0"/>
        <pt x="280" y="0" on="0"/>
        <pt x="235" y="0" on="1"/>
        <pt x="91" y="0" on="1"/>
      </contour>
      <contour>
        <pt x="236" y="21" on="1"/>
        <pt x="292" y="21" on="0"/>
        <pt x="358" y="106" on="0"/>
        <pt x="358" y="179" on="1"/>
        <pt x="358" y="520" on="1"/>
        <pt x="358" y="594" on="0"/>
        <pt x="293" y="679" on="0"/>
        <pt x="236" y="679" on="1"/>
        <pt x="113" y="679" on="1"/>
        <pt x="113" y="21" on="1"/>
      </contour>
    </TTGlyph>
    <TTGlyph name="E" xMin="91" yMin="0" xMax="373" yMax="700">
      <contour>
        <pt x="91" y="700" on="1"/>
        <pt x="373" y="700" on="1"/>
        <pt x="373" y="679" on="1"/>
        <pt x="113" y="679" on="1"/>
        <pt x="113" y="21" on="1"/>
        <pt x="373" y="21" on="1"/>
        <pt x="373" y="0" on="1"/>
        <pt x="91" y="0" on="1"/>
      </contour>
      <contour>
        <pt x="102" y="361" on="1"/>
        <pt x="290" y="361" on="1"/>
        <pt x="290" y="340" on="1"/>
        <pt x="102" y="340" on="1"/>
      </contour>
    </TTGlyph>
    <TTGlyph name="Euro" xMin="70" yMin="-8" xMax="413" yMax="708">
      <contour>
        <pt x="236" y="-8" on="0"/>
        <pt x="175" y="31" on="0"/>
        <pt x="141" y="101" on="0"/>
        <pt x="141" y="148" on="1"/>
        <pt x="141" y="553" on="1"/>
        <pt x="141" y="599" on="0"/>
        <pt x="175" y="670" on="0"/>
        <pt x="236" y="708" on="0"/>
        <pt x="276" y="708" on="1"/>
        <pt x="337" y="708" on="0"/>
        <pt x="411" y="629" on="0"/>
        <pt x="413" y="561" on="1"/>
        <pt x="390" y="557" on="1"/>
        <pt x="389" y="616" on="0"/>
        <pt x="327" y="687" on="0"/>
        <pt x="276" y="687" on="1"/>
        <pt x="225" y="687" on="0"/>
        <pt x="163" y="614" on="0"/>
        <pt x="163" y="554" on="1"/>
        <pt x="163" y="147" on="1"/>
        <pt x="163" y="87" on="0"/>
        <pt x="225" y="13" on="0"/>
        <pt x="276" y="13" on="1"/>
        <pt x="327" y="13" on="0"/>
        <pt x="389" y="84" on="0"/>
        <pt x="390" y="143" on="1"/>
        <pt x="413" y="140" on="1"/>
        <pt x="411" y="72" on="0"/>
        <pt x="337" y="-8" on="0"/>
        <pt x="276" y="-8" on="1"/>
      </contour>
      <contour>
        <pt x="70" y="301" on="1"/>
        <pt x="338" y="301" on="1"/>
        <pt x="326" y="280" on="1"/>
        <pt x="70" y="280" on="1"/>
      </contour>
      <contour>
        <pt x="70" y="416" on="1"/>
        <pt x="369" y="416" on="1"/>
        <pt x="358" y="395" on="1"/>
        <pt x="70" y="395" on="1"/>
      </contour>
    </TTGlyph>
    <TTGlyph name="F" xMin="91" yMin="0" xMax="371" yMax="700">
      <contour>
        <pt x="91" y="700" on="1"/>
        <pt x="371" y="700" on="1"/>
        <pt x="371" y="679" on="1"/>
        <pt x="113" y="679" on="1"/>
        <pt x="113" y="0" on="1"/>
        <pt x="91" y="0" on="1"/>
      </contour>
      <contour>
        <pt x="102" y="361" on="1"/>
        <pt x="289" y="361" on="1"/>
        <pt x="289" y="340" on="1"/>
        <pt x="102" y="340" on="1"/>
      </contour>
    </TTGlyph>
    <TTGlyph name="G" xMin="70" yMin="-8" xMax="369" yMax="708">
      <contour>
        <pt x="175" y="-8" on="0"/>
        <pt x="107" y="30" on="0"/>
        <pt x="70" y="99" on="0"/>
        <pt x="70" y="144" on="1"/>
        <pt x="70" y="556" on="1"/>
        <pt x="70" y="601" on="0"/>
        <pt x="107" y="670" on="0"/>
        <pt x="175" y="708" on="0"/>
        <pt x="219" y="708" on="1"/>
        <pt x="264" y="708" on="0"/>
        <pt x="332" y="670" on="0"/>
        <pt x="369" y="601" on="0"/>
        <pt x="369" y="556" on="1"/>
        <pt x="369" y="500" on="1"/>
        <pt x="347" y="500" on="1"/>
        <pt x="347" y="557" on="1"/>
        <pt x="347" y="616" on="0"/>
        <pt x="277" y="687" on="0"/>
        <pt x="219" y="687" on="1"/>
        <pt x="162" y="687" on="0"/>
        <pt x="92" y="615" on="0"/>
        <pt x="92" y="557" on="1"/>
        <pt x="92" y="143" on="1"/>
        <pt x="92" y="85" on="0"/>
        <pt x="162" y="13" on="0"/>
        <pt x="219" y="13" on="1"/>
        <pt x="277" y="13" on="0"/>
        <pt x="347" y="84" on="0"/>
        <pt x="347" y="143" on="1"/>
        <pt x="347" y="311" on="1"/>
        <pt x="226" y="311" on="1"/>
        <pt x="226" y="332" on="1"/>
        <pt x="369" y="332" on="1"/>
        <pt x="369" y="144" on="1"/>
        <pt x="369" y="99" on="0"/>
        <pt x="332" y="30" on="0"/>
        <pt x="264" y="-8" on="0"/>
        <pt x="219" y="-8" on="1"/>
      </contour>
    </TTGlyph>
    <TTGlyph name="H" xMin="91" yMin="0" xMax="375" yMax="700">
      <contour>
        <pt x="353" y="700" on="1"/>
        <pt x="375" y="700" on="1"/>
        <pt x="375" y="0" on="1"/>
        <pt x="353" y="0" on="1"/>
      </contour>
      <contour>
        <pt x="91" y="700" on="1"/>
        <pt x="113" y="700" on="1"/>
        <pt x="113" y="0" on="1"/>
        <pt x="91" y="0" on="1"/>
      </contour>
      <contour>
        <pt x="108" y="361" on="1"/>
        <pt x="360" y="361" on="1"/>
        <pt x="360" y="340" on="1"/>
        <pt x="108" y="340" on="1"/>
      </contour>
    </TTGlyph>
    <TTGlyph name="I" xMin="91" yMin="0" xMax="113" yMax="700">
      <contour>
        <pt x="91" y="700" on="1"/>
        <pt x="113" y="700" on="1"/>
        <pt x="113" y="0" on="1"/>
        <pt x="91" y="0" on="1"/>
      </contour>
    </TTGlyph>
    <TTGlyph name="J" xMin="28" yMin="-8" xMax="316" yMax="700">
      <contour>
        <pt x="129" y="-8" on="0"/>
        <pt x="64" y="31" on="0"/>
        <pt x="28" y="102" on="0"/>
        <pt x="28" y="148" on="1"/>
        <pt x="28" y="251" on="1"/>
        <pt x="50" y="251" on="1"/>
        <pt x="50" y="147" on="1"/>
        <pt x="50" y="87" on="0"/>
        <pt x="117" y="13" on="0"/>
        <pt x="172" y="13" on="1"/>
        <pt x="227" y="13" on="0"/>
        <pt x="294" y="87" on="0"/>
        <pt x="294" y="147" on="1"/>
        <pt x="294" y="700" on="1"/>
        <pt x="316" y="700" on="1"/>
        <pt x="316" y="148" on="1"/>
        <pt x="316" y="102" on="0"/>
        <pt x="280" y="31" on="0"/>
        <pt x="215" y="-8" on="0"/>
        <pt x="172" y="-8" on="1"/>
      </contour>
    </TTGlyph>
    <TTGlyph name="K" xMin="91" yMin="0" xMax="404" yMax="700">
      <contour>
        <pt x="91" y="700" on="1"/>
        <pt x="113" y="700" on="1"/>
        <pt x="113" y="308" on="1"/>
        <pt x="359" y="700" on="1"/>
        <pt x="387" y="700" on="1"/>
        <pt x="217" y="427" on="1"/>
        <pt x="404" y="0" on="1"/>
        <pt x="377" y="0" on="1"/>
        <pt x="201" y="406" on="1"/>
        <pt x="113" y="274" on="1"/>
        <pt x="113" y="0" on="1"/>
        <pt x="91" y="0" on="1"/>
      </contour>
    </TTGlyph>
    <TTGlyph name="L" xMin="91" yMin="0" xMax="368" yMax="700">
      <contour>
        <pt x="91" y="700" on="1"/>
        <pt x="113" y="700" on="1"/>
        <pt x="113" y="21" on="1"/>
        <pt x="368" y="21" on="1"/>
        <pt x="368" y="0" on="1"/>
        <pt x="91" y="0" on="1"/>
      </contour>
    </TTGlyph>
    <TTGlyph name="M" xMin="91" yMin="0" xMax="411" yMax="700">
      <contour>
        <pt x="91" y="700" on="1"/>
        <pt x="113" y="700" on="1"/>
        <pt x="259" y="347" on="1"/>
        <pt x="245" y="347" on="1"/>
        <pt x="389" y="700" on="1"/>
        <pt x="411" y="700" on="1"/>
        <pt x="411" y="0" on="1"/>
        <pt x="389" y="0" on="1"/>
        <pt x="389" y="672" on="1"/>
        <pt x="400" y="672" on="1"/>
        <pt x="261" y="330" on="1"/>
        <pt x="243" y="330" on="1"/>
        <pt x="101" y="672" on="1"/>
        <pt x="113" y="672" on="1"/>
        <pt x="113" y="0" on="1"/>
        <pt x="91" y="0" on="1"/>
      </contour>
    </TTGlyph>
    <TTGlyph name="N" xMin="91" yMin="0" xMax="388" yMax="700">
      <contour>
        <pt x="91" y="700" on="1"/>
        <pt x="113" y="700" on="1"/>
        <pt x="366" y="52" on="1"/>
        <pt x="366" y="700" on="1"/>
        <pt x="388" y="700" on="1"/>
        <pt x="388" y="0" on="1"/>
        <pt x="365" y="0" on="1"/>
        <pt x="113" y="648" on="1"/>
        <pt x="113" y="0" on="1"/>
        <pt x="91" y="0" on="1"/>
      </contour>
    </TTGlyph>
    <TTGlyph name="O" xMin="70" yMin="-8" xMax="374" yMax="708">
      <contour>
        <pt x="177" y="-8" on="0"/>
        <pt x="108" y="32" on="0"/>
        <pt x="70" y="104" on="0"/>
        <pt x="70" y="150" on="1"/>
        <pt x="70" y="549" on="1"/>
        <pt x="70" y="595" on="0"/>
        <pt x="108" y="668" on="0"/>
        <pt x="177" y="708" on="0"/>
        <pt x="221" y="708" on="1"/>
        <pt x="266" y="708" on="0"/>
        <pt x="335" y="668" on="0"/>
        <pt x="374" y="595" on="0"/>
        <pt x="374" y="549" on="1"/>
        <pt x="374" y="150" on="1"/>
        <pt x="374" y="104" on="0"/>
        <pt x="335" y="32" on="0"/>
        <pt x="266" y="-8" on="0"/>
        <pt x="221" y="-8" on="1"/>
      </contour>
      <contour>
        <pt x="279" y="13" on="0"/>
        <pt x="352" y="89" on="0"/>
        <pt x="352" y="149" on="1"/>
        <pt x="352" y="550" on="1"/>
        <pt x="352" y="611" on="0"/>
        <pt x="279" y="687" on="0"/>
        <pt x="221" y="687" on="1"/>
        <pt x="164" y="687" on="0"/>
        <pt x="92" y="611" on="0"/>
        <pt x="92" y="550" on="1"/>
        <pt x="92" y="149" on="1"/>
        <pt x="92" y="89" on="0"/>
        <pt x="164" y="13" on="0"/>
        <pt x="221" y="13" on="1"/>
      </contour>
    </TTGlyph>
    <TTGlyph name="OE" xMin="70" yMin="-8" xMax="634" yMax="708">
      <contour>
        <pt x="177" y="-8" on="0"/>
        <pt x="108" y="32" on="0"/>
        <pt x="70" y="104" on="0"/>
        <pt x="70" y="150" on="1"/>
        <pt x="70" y="549" on="1"/>
        <pt x="70" y="595" on="0"/>
        <pt x="108" y="668" on="0"/>
        <pt x="177" y="708" on="0"/>
        <pt x="221" y="708" on="1"/>
        <pt x="265" y="708" on="0"/>
        <pt x="334" y="668" on="0"/>
        <pt x="372" y="596" on="0"/>
        <pt x="372" y="549" on="1"/>
        <pt x="372" y="150" on="1"/>
        <pt x="372" y="103" on="0"/>
        <pt x="334" y="32" on="0"/>
        <pt x="266" y="-8" on="0"/>
        <pt x="221" y="-8" on="1"/>
      </contour>
      <contour>
        <pt x="259" y="13" on="0"/>
        <pt x="319" y="48" on="0"/>
        <pt x="352" y="109" on="0"/>
        <pt x="352" y="149" on="1"/>
        <pt x="352" y="550" on="1"/>
        <pt x="352" y="590" on="0"/>
        <pt x="319" y="652" on="0"/>
        <pt x="259" y="687" on="0"/>
        <pt x="221" y="687" on="1"/>
        <pt x="183" y="687" on="0"/>
        <pt x="125" y="652" on="0"/>
        <pt x="92" y="590" on="0"/>
        <pt x="92" y="550" on="1"/>
        <pt x="92" y="149" on="1"/>
        <pt x="92" y="109" on="0"/>
        <pt x="125" y="48" on="0"/>
        <pt x="183" y="13" on="0"/>
        <pt x="221" y="13" on="1"/>
      </contour>
      <contour>
        <pt x="363" y="361" on="1"/>
        <pt x="551" y="361" on="1"/>
        <pt x="551" y="340" on="1"/>
        <pt x="363" y="340" on="1"/>
      </contour>
      <contour>
        <pt x="352" y="700" on="1"/>
        <pt x="634" y="700" on="1"/>
        <pt x="634" y="679" on="1"/>
        <pt x="374" y="679" on="1"/>
        <pt x="374" y="21" on="1"/>
        <pt x="634" y="21" on="1"/>
        <pt x="634" y="0" on="1"/>
        <pt x="352" y="0" on="1"/>
      </contour>
    </TTGlyph>
    <TTGlyph name="P" xMin="91" yMin="0" xMax="384" yMax="702">
      <contour>
        <pt x="91" y="702" on="1"/>
        <pt x="239" y="702" on="1"/>
        <pt x="282" y="702" on="0"/>
        <pt x="348" y="657" on="0"/>
        <pt x="384" y="574" on="0"/>
        <pt x="384" y="520" on="1"/>
        <pt x="384" y="467" on="0"/>
        <pt x="348" y="385" on="0"/>
        <pt x="282" y="340" on="0"/>
        <pt x="239" y="340" on="1"/>
        <pt x="109" y="340" on="1"/>
        <pt x="109" y="361" on="1"/>
        <pt x="239" y="361" on="1"/>
        <pt x="294" y="361" on="0"/>
        <pt x="362" y="449" on="0"/>
        <pt x="362" y="520" on="1"/>
        <pt x="362" y="593" on="0"/>
        <pt x="295" y="681" on="0"/>
        <pt x="239" y="681" on="1"/>
        <pt x="113" y="681" on="1"/>
        <pt x="113" y="0" on="1"/>
        <pt x="91" y="0" on="1"/>
      </contour>
    </TTGlyph>
    <TTGlyph name="Q" xMin="70" yMin="-127" xMax="361" yMax="708">
      <contour>
        <pt x="173" y="-8" on="0"/>
        <pt x="107" y="32" on="0"/>
        <pt x="70" y="105" on="0"/>
        <pt x="70" y="151" on="1"/>
        <pt x="70" y="549" on="1"/>
        <pt x="70" y="595" on="0"/>
        <pt x="107" y="668" on="0"/>
        <pt x="173" y="708" on="0"/>
        <pt x="216" y="708" on="1"/>
        <pt x="259" y="708" on="0"/>
        <pt x="324" y="668" on="0"/>
        <pt x="361" y="595" on="0"/>
        <pt x="361" y="549" on="1"/>
        <pt x="361" y="151" on="1"/>
        <pt x="361" y="105" on="0"/>
        <pt x="324" y="32" on="0"/>
        <pt x="259" y="-8" on="0"/>
        <pt x="216" y="-8" on="1"/>
      </contour>
      <contour>
        <pt x="204" y="0" on="1"/>
        <pt x="227" y="0" on="1"/>
        <pt x="227" y="-127" on="1"/>
        <pt x="204" y="-127" on="1"/>
      </contour>
      <contour>
        <pt x="271" y="13" on="0"/>
        <pt x="339" y="89" on="0"/>
        <pt x="339" y="150" on="1"/>
        <pt x="339" y="550" on="1"/>
        <pt x="339" y="611" on="0"/>
        <pt x="271" y="687" on="0"/>
        <pt x="216" y="687" on="1"/>
        <pt x="161" y="687" on="0"/>
        <pt x="92" y="611" on="0"/>
        <pt x="92" y="550" on="1"/>
        <pt x="92" y="150" on="1"/>
        <pt x="92" y="89" on="0"/>
        <pt x="161" y="13" on="0"/>
        <pt x="216" y="13" on="1"/>
      </contour>
    </TTGlyph>
    <TTGlyph name="R" xMin="91" yMin="0" xMax="389" yMax="700">
      <contour>
        <pt x="91" y="700" on="1"/>
        <pt x="239" y="700" on="1"/>
        <pt x="282" y="700" on="0"/>
        <pt x="348" y="655" on="0"/>
        <pt x="384" y="573" on="0"/>
        <pt x="384" y="520" on="1"/>
        <pt x="384" y="467" on="0"/>
        <pt x="348" y="386" on="0"/>
        <pt x="282" y="342" on="0"/>
        <pt x="239" y="342" on="1"/>
        <pt x="109" y="342" on="1"/>
        <pt x="109" y="363" on="1"/>
        <pt x="239" y="363" on="1"/>
        <pt x="294" y="363" on="0"/>
        <pt x="362" y="449" on="0"/>
        <pt x="362" y="520" on="1"/>
        <pt x="362" y="591" on="0"/>
        <pt x="294" y="679" on="0"/>
        <pt x="239" y="679" on="1"/>
        <pt x="113" y="679" on="1"/>
        <pt x="113" y="0" on="1"/>
        <pt x="91" y="0" on="1"/>
      </contour>
      <contour>
        <pt x="239" y="345" on="1"/>
        <pt x="258" y="353" on="1"/>
        <pt x="389" y="0" on="1"/>
        <pt x="367" y="0" on="1"/>
      </contour>
    </TTGlyph>
    <TTGlyph name="S" xMin="63" yMin="-8" xMax="358" yMax="708">
      <contour>
        <pt x="167" y="-8" on="0"/>
        <pt x="100" y="35" on="0"/>
        <pt x="63" y="113" on="0"/>
        <pt x="63" y="164" on="1"/>
        <pt x="63" y="192" on="1"/>
        <pt x="84" y="192" on="1"/>
        <pt x="84" y="165" on="1"/>
        <pt x="84" y="96" on="0"/>
        <pt x="154" y="12" on="0"/>
        <pt x="209" y="12" on="1"/>
        <pt x="264" y="12" on="0"/>
        <pt x="336" y="93" on="0"/>
        <pt x="336" y="159" on="1"/>
        <pt x="336" y="200" on="0"/>
        <pt x="306" y="259" on="0"/>
        <pt x="258" y="304" on="0"/>
        <pt x="213" y="338" on="1"/>
        <pt x="210" y="340" on="0"/>
        <pt x="204" y="345" on="0"/>
        <pt x="201" y="347" on="1"/>
        <pt x="150" y="385" on="0"/>
        <pt x="96" y="437" on="0"/>
        <pt x="63" y="504" on="0"/>
        <pt x="63" y="551" on="1"/>
        <pt x="63" y="600" on="0"/>
        <pt x="100" y="671" on="0"/>
        <pt x="164" y="708" on="0"/>
        <pt x="204" y="708" on="1"/>
        <pt x="248" y="708" on="0"/>
        <pt x="315" y="665" on="0"/>
        <pt x="352" y="586" on="0"/>
        <pt x="352" y="535" on="1"/>
        <pt x="352" y="500" on="1"/>
        <pt x="330" y="500" on="1"/>
        <pt x="330" y="534" on="1"/>
        <pt x="330" y="604" on="0"/>
        <pt x="260" y="688" on="0"/>
        <pt x="204" y="688" on="1"/>
        <pt x="152" y="688" on="0"/>
        <pt x="85" y="615" on="0"/>
        <pt x="85" y="549" on="1"/>
        <pt x="85" y="510" on="0"/>
        <pt x="112" y="454" on="0"/>
        <pt x="163" y="407" on="0"/>
        <pt x="213" y="369" on="1"/>
        <pt x="218" y="365" on="0"/>
        <pt x="229" y="357" on="0"/>
        <pt x="234" y="353" on="1"/>
        <pt x="282" y="317" on="0"/>
        <pt x="332" y="266" on="0"/>
        <pt x="358" y="207" on="0"/>
        <pt x="358" y="166" on="1"/>
        <pt x="358" y="114" on="0"/>
        <pt x="320" y="35" on="0"/>
        <pt x="253" y="-8" on="0"/>
        <pt x="210" y="-8" on="1"/>
      </contour>
    </TTGlyph>
    <TTGlyph name="T" xMin="40" yMin="0" xMax="351" yMax="700">
      <contour>
        <pt x="180" y="689" on="1"/>
        <pt x="202" y="689" on="1"/>
        <pt x="202" y="0" on="1"/>
        <pt x="180" y="0" on="1"/>
      </contour>
      <contour>
        <pt x="40" y="700" on="1"/>
        <pt x="351" y="700" on="1"/>
        <pt x="351" y="679" on="1"/>
        <pt x="40" y="679" on="1"/>
      </contour>
    </TTGlyph>
    <TTGlyph name="U" xMin="84" yMin="-8" xMax="390" yMax="700">
      <contour>
        <pt x="191" y="-8" on="0"/>
        <pt x="122" y="38" on="0"/>
        <pt x="84" y="121" on="0"/>
        <pt x="84" y="175" on="1"/>
        <pt x="84" y="700" on="1"/>
        <pt x="106" y="700" on="1"/>
        <pt x="106" y="172" on="1"/>
        <pt x="106" y="125" on="0"/>
        <pt x="138" y="53" on="0"/>
        <pt x="197" y="13" on="0"/>
        <pt x="236" y="13" on="1"/>
        <pt x="295" y="13" on="0"/>
        <pt x="368" y="101" on="0"/>
        <pt x="368" y="172" on="1"/>
        <pt x="368" y="700" on="1"/>
        <pt x="390" y="700" on="1"/>
        <pt x="390" y="175" on="1"/>
        <pt x="390" y="121" on="0"/>
        <pt x="351" y="38" on="0"/>
        <pt x="282" y="-8" on="0"/>
        <pt x="236" y="-8" on="1"/>
      </contour>
    </TTGlyph>
    <TTGlyph name="V" xMin="42" yMin="0" xMax="363" yMax="700">
      <contour>
        <pt x="42" y="700" on="1"/>
        <pt x="65" y="700" on="1"/>
        <pt x="203" y="42" on="1"/>
        <pt x="341" y="700" on="1"/>
        <pt x="363" y="700" on="1"/>
        <pt x="214" y="0" on="1"/>
        <pt x="192" y="0" on="1"/>
      </contour>
    </TTGlyph>
    <TTGlyph name="W" xMin="33" yMin="0" xMax="544" yMax="700">
      <contour>
        <pt x="33" y="700" on="1"/>
        <pt x="56" y="700" on="1"/>
        <pt x="178" y="40" on="1"/>
        <pt x="280" y="700" on="1"/>
        <pt x="303" y="700" on="1"/>
        <pt x="408" y="40" on="1"/>
        <pt x="520" y="700" on="1"/>
        <pt x="544" y="700" on="1"/>
        <pt x="418" y="0" on="1"/>
        <pt x="395" y="0" on="1"/>
        <pt x="292" y="656" on="1"/>
        <pt x="188" y="0" on="1"/>
        <pt x="166" y="0" on="1"/>
      </contour>
    </TTGlyph>
    <TTGlyph name="X" xMin="42" yMin="0" xMax="363" yMax="700">
      <contour>
        <pt x="191" y="350" on="1"/>
        <pt x="42" y="700" on="1"/>
        <pt x="67" y="700" on="1"/>
        <pt x="203" y="369" on="1"/>
        <pt x="338" y="700" on="1"/>
        <pt x="363" y="700" on="1"/>
        <pt x="213" y="349" on="1"/>
        <pt x="363" y="0" on="1"/>
        <pt x="338" y="0" on="1"/>
        <pt x="203" y="330" on="1"/>
        <pt x="67" y="0" on="1"/>
        <pt x="42" y="0" on="1"/>
      </contour>
    </TTGlyph>
    <TTGlyph name="Y" xMin="42" yMin="0" xMax="347" yMax="700">
      <contour>
        <pt x="184" y="339" on="1"/>
        <pt x="42" y="700" on="1"/>
        <pt x="65" y="700" on="1"/>
        <pt x="195" y="358" on="1"/>
        <pt x="324" y="700" on="1"/>
        <pt x="347" y="700" on="1"/>
        <pt x="206" y="339" on="1"/>
        <pt x="206" y="0" on="1"/>
        <pt x="184" y="0" on="1"/>
      </contour>
    </TTGlyph>
    <TTGlyph name="Z" xMin="42" yMin="0" xMax="334" yMax="700">
      <contour>
        <pt x="42" y="21" on="1"/>
        <pt x="310" y="679" on="1"/>
        <pt x="42" y="679" on="1"/>
        <pt x="42" y="700" on="1"/>
        <pt x="334" y="700" on="1"/>
        <pt x="334" y="679" on="1"/>
        <pt x="67" y="21" on="1"/>
        <pt x="334" y="21" on="1"/>
        <pt x="334" y="0" on="1"/>
        <pt x="42" y="0" on="1"/>
      </contour>
    </TTGlyph>
    <TTGlyph name="a" xMin="52" yMin="-8" xMax="325" yMax="508">
      <contour>
        <pt x="303" y="345" on="1"/>
        <pt x="303" y="410" on="0"/>
        <pt x="247" y="487" on="0"/>
        <pt x="194" y="487" on="1"/>
        <pt x="150" y="487" on="0"/>
        <pt x="85" y="429" on="0"/>
        <pt x="85" y="385" on="1"/>
        <pt x="62" y="388" on="1"/>
        <pt x="63" y="423" on="0"/>
        <pt x="100" y="478" on="0"/>
        <pt x="160" y="508" on="0"/>
        <pt x="195" y="508" on="1"/>
        <pt x="237" y="508" on="0"/>
        <pt x="296" y="467" on="0"/>
        <pt x="325" y="392" on="0"/>
        <pt x="325" y="342" on="1"/>
        <pt x="325" y="0" on="1"/>
        <pt x="303" y="0" on="1"/>
      </contour>
      <contour>
        <pt x="122" y="-8" on="0"/>
        <pt x="52" y="52" on="0"/>
        <pt x="52" y="126" on="1"/>
        <pt x="52" y="179" on="0"/>
        <pt x="91" y="250" on="0"/>
        <pt x="160" y="283" on="0"/>
        <pt x="206" y="283" on="1"/>
        <pt x="318" y="283" on="1"/>
        <pt x="318" y="142" on="1"/>
        <pt x="318" y="92" on="0"/>
        <pt x="278" y="24" on="0"/>
        <pt x="213" y="-8" on="0"/>
        <pt x="173" y="-8" on="1"/>
      </contour>
      <contour>
        <pt x="228" y="13" on="0"/>
        <pt x="303" y="79" on="0"/>
        <pt x="303" y="142" on="1"/>
        <pt x="303" y="262" on="1"/>
        <pt x="208" y="262" on="1"/>
        <pt x="147" y="262" on="0"/>
        <pt x="74" y="194" on="0"/>
        <pt x="74" y="127" on="1"/>
        <pt x="74" y="69" on="0"/>
        <pt x="130" y="13" on="0"/>
        <pt x="176" y="13" on="1"/>
      </contour>
    </TTGlyph>
    <TTGlyph name="acircumflex" xMin="52" yMin="-8" xMax="325" yMax="700">
      <contour>
        <pt x="303" y="345" on="1"/>
        <pt x="303" y="410" on="0"/>
        <pt x="247" y="487" on="0"/>
        <pt x="194" y="487" on="1"/>
        <pt x="150" y="487" on="0"/>
        <pt x="85" y="429" on="0"/>
        <pt x="85" y="385" on="1"/>
        <pt x="62" y="388" on="1"/>
        <pt x="63" y="423" on="0"/>
        <pt x="100" y="478" on="0"/>
        <pt x="160" y="508" on="0"/>
        <pt x="195" y="508" on="1"/>
        <pt x="237" y="508" on="0"/>
        <pt x="296" y="467" on="0"/>
        <pt x="325" y="392" on="0"/>
        <pt x="325" y="342" on="1"/>
        <pt x="325" y="0" on="1"/>
        <pt x="303" y="0" on="1"/>
      </contour>
      <contour>
        <pt x="122" y="-8" on="0"/>
        <pt x="52" y="52" on="0"/>
        <pt x="52" y="126" on="1"/>
        <pt x="52" y="179" on="0"/>
        <pt x="91" y="250" on="0"/>
        <pt x="160" y="283" on="0"/>
        <pt x="206" y="283" on="1"/>
        <pt x="318" y="283" on="1"/>
        <pt x="318" y="142" on="1"/>
        <pt x="318" y="92" on="0"/>
        <pt x="278" y="24" on="0"/>
        <pt x="213" y="-8" on="0"/>
        <pt x="173" y="-8" on="1"/>
      </contour>
      <contour>
        <pt x="228" y="13" on="0"/>
        <pt x="303" y="79" on="0"/>
        <pt x="303" y="142" on="1"/>
        <pt x="303" y="262" on="1"/>
        <pt x="208" y="262" on="1"/>
        <pt x="147" y="262" on="0"/>
        <pt x="74" y="194" on="0"/>
        <pt x="74" y="127" on="1"/>
        <pt x="74" y="69" on="0"/>
        <pt x="130" y="13" on="0"/>
        <pt x="176" y="13" on="1"/>
      </contour>
      <contour>
        <pt x="177" y="700" on="1"/>
        <pt x="203" y="700" on="1"/>
        <pt x="282" y="581" on="1"/>
        <pt x="250" y="581" on="1"/>
        <pt x="191" y="675" on="1"/>
        <pt x="131" y="581" on="1"/>
        <pt x="100" y="581" on="1"/>
      </contour>
    </TTGlyph>
    <TTGlyph name="ae" xMin="52" yMin="-8" xMax="573" yMax="508">
      <contour>
        <pt x="122" y="-8" on="0"/>
        <pt x="52" y="52" on="0"/>
        <pt x="52" y="126" on="1"/>
        <pt x="52" y="179" on="0"/>
        <pt x="91" y="245" on="0"/>
        <pt x="159" y="274" on="0"/>
        <pt x="206" y="274" on="1"/>
        <pt x="303" y="274" on="1"/>
        <pt x="303" y="345" on="1"/>
        <pt x="303" y="410" on="0"/>
        <pt x="247" y="487" on="0"/>
        <pt x="194" y="487" on="1"/>
        <pt x="150" y="487" on="0"/>
        <pt x="85" y="429" on="0"/>
        <pt x="85" y="385" on="1"/>
        <pt x="62" y="388" on="1"/>
        <pt x="63" y="423" on="0"/>
        <pt x="100" y="478" on="0"/>
        <pt x="160" y="508" on="0"/>
        <pt x="195" y="508" on="1"/>
        <pt x="239" y="508" on="0"/>
        <pt x="299" y="463" on="0"/>
        <pt x="314" y="422" on="1"/>
        <pt x="328" y="462" on="0"/>
        <pt x="394" y="508" on="0"/>
        <pt x="438" y="508" on="1"/>
        <pt x="477" y="508" on="0"/>
        <pt x="539" y="471" on="0"/>
        <pt x="573" y="406" on="0"/>
        <pt x="573" y="365" on="1"/>
        <pt x="573" y="337" on="0"/>
        <pt x="573" y="282" on="0"/>
        <pt x="573" y="254" on="1"/>
        <pt x="326" y="254" on="1"/>
        <pt x="326" y="235" on="0"/>
        <pt x="326" y="198" on="0"/>
        <pt x="326" y="150" on="0"/>
        <pt x="326" y="135" on="1"/>
        <pt x="326" y="81" on="0"/>
        <pt x="388" y="13" on="0"/>
        <pt x="438" y="13" on="1"/>
        <pt x="481" y="13" on="0"/>
        <pt x="541" y="65" on="0"/>
        <pt x="549" y="108" on="1"/>
        <pt x="571" y="109" on="1"/>
        <pt x="563" y="57" on="0"/>
        <pt x="491" y="-8" on="0"/>
        <pt x="438" y="-8" on="1"/>
        <pt x="407" y="-8" on="0"/>
        <pt x="355" y="16" on="0"/>
        <pt x="319" y="59" on="0"/>
        <pt x="311" y="87" on="1"/>
        <pt x="301" y="55" on="0"/>
        <pt x="260" y="13" on="0"/>
        <pt x="205" y="-8" on="0"/>
        <pt x="173" y="-8" on="1"/>
      </contour>
      <contour>
        <pt x="228" y="13" on="0"/>
        <pt x="303" y="79" on="0"/>
        <pt x="303" y="142" on="1"/>
        <pt x="303" y="253" on="1"/>
        <pt x="208" y="253" on="1"/>
        <pt x="146" y="253" on="0"/>
        <pt x="74" y="193" on="0"/>
        <pt x="74" y="127" on="1"/>
        <pt x="74" y="69" on="0"/>
        <pt x="130" y="13" on="0"/>
        <pt x="176" y="13" on="1"/>
      </contour>
      <contour>
        <pt x="551" y="273" on="1"/>
        <pt x="551" y="296" on="0"/>
        <pt x="551" y="342" on="0"/>
        <pt x="551" y="365" on="1"/>
        <pt x="551" y="419" on="0"/>
        <pt x="488" y="487" on="0"/>
        <pt x="438" y="487" on="1"/>
        <pt x="388" y="487" on="0"/>
        <pt x="326" y="419" on="0"/>
        <pt x="326" y="365" on="1"/>
        <pt x="326" y="342" on="0"/>
        <pt x="326" y="296" on="0"/>
        <pt x="326" y="273" on="1"/>
      </contour>
    </TTGlyph>
    <TTGlyph name="agrave" xMin="52" yMin="-8" xMax="325" yMax="700">
      <contour>
        <pt x="303" y="345" on="1"/>
        <pt x="303" y="410" on="0"/>
        <pt x="247" y="487" on="0"/>
        <pt x="194" y="487" on="1"/>
        <pt x="150" y="487" on="0"/>
        <pt x="85" y="429" on="0"/>
        <pt x="85" y="385" on="1"/>
        <pt x="62" y="388" on="1"/>
        <pt x="63" y="423" on="0"/>
        <pt x="100" y="478" on="0"/>
        <pt x="160" y="508" on="0"/>
        <pt x="195" y="508" on="1"/>
        <pt x="237" y="508" on="0"/>
        <pt x="296" y="467" on="0"/>
        <pt x="325" y="392" on="0"/>
        <pt x="325" y="342" on="1"/>
        <pt x="325" y="0" on="1"/>
        <pt x="303" y="0" on="1"/>
      </contour>
      <contour>
        <pt x="122" y="-8" on="0"/>
        <pt x="52" y="52" on="0"/>
        <pt x="52" y="126" on="1"/>
        <pt x="52" y="179" on="0"/>
        <pt x="91" y="250" on="0"/>
        <pt x="160" y="283" on="0"/>
        <pt x="206" y="283" on="1"/>
        <pt x="318" y="283" on="1"/>
        <pt x="318" y="142" on="1"/>
        <pt x="318" y="92" on="0"/>
        <pt x="278" y="24" on="0"/>
        <pt x="213" y="-8" on="0"/>
        <pt x="173" y="-8" on="1"/>
      </contour>
      <contour>
        <pt x="228" y="13" on="0"/>
        <pt x="303" y="79" on="0"/>
        <pt x="303" y="142" on="1"/>
        <pt x="303" y="262" on="1"/>
        <pt x="208" y="262" on="1"/>
        <pt x="147" y="262" on="0"/>
        <pt x="74" y="194" on="0"/>
        <pt x="74" y="127" on="1"/>
        <pt x="74" y="69" on="0"/>
        <pt x="130" y="13" on="0"/>
        <pt x="176" y="13" on="1"/>
      </contour>
      <contour>
        <pt x="181" y="569" on="1"/>
        <pt x="106" y="700" on="1"/>
        <pt x="130" y="700" on="1"/>
        <pt x="203" y="569" on="1"/>
      </contour>
    </TTGlyph>
    <TTGlyph name="ampersand" xMin="63" yMin="-8" xMax="461" yMax="708">
      <contour>
        <pt x="143" y="-8" on="0"/>
        <pt x="63" y="74" on="0"/>
        <pt x="63" y="147" on="1"/>
        <pt x="63" y="197" on="0"/>
        <pt x="101" y="280" on="0"/>
        <pt x="156" y="343" on="0"/>
        <pt x="201" y="385" on="0"/>
        <pt x="202" y="386" on="1"/>
        <pt x="203" y="387" on="0"/>
        <pt x="204" y="388" on="0"/>
        <pt x="204" y="388" on="1"/>
        <pt x="243" y="424" on="0"/>
        <pt x="289" y="476" on="0"/>
        <pt x="320" y="540" on="0"/>
        <pt x="320" y="577" on="1"/>
        <pt x="320" y="626" on="0"/>
        <pt x="267" y="687" on="0"/>
        <pt x="225" y="687" on="1"/>
        <pt x="183" y="687" on="0"/>
        <pt x="130" y="625" on="0"/>
        <pt x="130" y="572" on="1"/>
        <pt x="130" y="540" on="0"/>
        <pt x="152" y="482" on="0"/>
        <pt x="213" y="382" on="0"/>
        <pt x="298" y="251" on="1"/>
        <pt x="298" y="251" on="0"/>
        <pt x="299" y="250" on="0"/>
        <pt x="299" y="250" on="1"/>
        <pt x="310" y="232" on="0"/>
        <pt x="335" y="194" on="0"/>
        <pt x="349" y="174" on="1"/>
        <pt x="374" y="135" on="0"/>
        <pt x="430" y="48" on="0"/>
        <pt x="461" y="0" on="1"/>
        <pt x="438" y="0" on="1"/>
        <pt x="437" y="2" on="0"/>
        <pt x="435" y="5" on="0"/>
        <pt x="342" y="150" on="0"/>
        <pt x="306" y="205" on="1"/>
        <pt x="301" y="213" on="0"/>
        <pt x="290" y="230" on="0"/>
        <pt x="285" y="238" on="1"/>
        <pt x="193" y="377" on="0"/>
        <pt x="130" y="480" on="0"/>
        <pt x="108" y="538" on="0"/>
        <pt x="108" y="572" on="1"/>
        <pt x="108" y="613" on="0"/>
        <pt x="138" y="675" on="0"/>
        <pt x="191" y="708" on="0"/>
        <pt x="225" y="708" on="1"/>
        <pt x="259" y="708" on="0"/>
        <pt x="312" y="675" on="0"/>
        <pt x="342" y="615" on="0"/>
        <pt x="342" y="576" on="1"/>
        <pt x="342" y="534" on="0"/>
        <pt x="308" y="463" on="0"/>
        <pt x="259" y="407" on="0"/>
        <pt x="217" y="367" on="0"/>
        <pt x="216" y="366" on="1"/>
        <pt x="212" y="362" on="0"/>
        <pt x="205" y="356" on="0"/>
        <pt x="202" y="352" on="1"/>
        <pt x="145" y="298" on="0"/>
        <pt x="85" y="205" on="0"/>
        <pt x="85" y="144" on="1"/>
        <pt x="85" y="82" on="0"/>
        <pt x="152" y="13" on="0"/>
        <pt x="212" y="13" on="1"/>
        <pt x="253" y="13" on="0"/>
        <pt x="314" y="53" on="0"/>
        <pt x="378" y="143" on="0"/>
        <pt x="432" y="236" on="1"/>
        <pt x="450" y="224" on="1"/>
        <pt x="394" y="129" on="0"/>
        <pt x="326" y="35" on="0"/>
        <pt x="257" y="-8" on="0"/>
        <pt x="211" y="-8" on="1"/>
      </contour>
    </TTGlyph>
    <TTGlyph name="asciicircum" xMin="38" yMin="314" xMax="340" yMax="700">
      <contour>
        <pt x="177" y="700" on="1"/>
        <pt x="201" y="700" on="1"/>
        <pt x="340" y="314" on="1"/>
        <pt x="318" y="314" on="1"/>
        <pt x="189" y="679" on="1"/>
        <pt x="60" y="314" on="1"/>
        <pt x="38" y="314" on="1"/>
      </contour>
    </TTGlyph>
    <TTGlyph name="asciitilde" xMin="38" yMin="253" xMax="403" yMax="336">
      <contour>
        <pt x="285" y="253" on="0"/>
        <pt x="243" y="269" on="0"/>
        <pt x="210" y="289" on="0"/>
        <pt x="207" y="291" on="1"/>
        <pt x="204" y="293" on="0"/>
        <pt x="197" y="297" on="0"/>
        <pt x="194" y="299" on="1"/>
        <pt x="179" y="306" on="0"/>
        <pt x="152" y="314" on="0"/>
        <pt x="136" y="314" on="1"/>
        <pt x="106" y="314" on="0"/>
        <pt x="68" y="288" on="0"/>
        <pt x="54" y="262" on="1"/>
        <pt x="38" y="272" on="1"/>
        <pt x="52" y="302" on="0"/>
        <pt x="102" y="336" on="0"/>
        <pt x="136" y="336" on="1"/>
        <pt x="160" y="336" on="0"/>
        <pt x="197" y="322" on="0"/>
        <pt x="219" y="309" on="1"/>
        <pt x="220" y="308" on="0"/>
        <pt x="222" y="308" on="0"/>
        <pt x="223" y="307" on="1"/>
        <pt x="248" y="291" on="0"/>
        <pt x="288" y="275" on="0"/>
        <pt x="316" y="275" on="1"/>
        <pt x="339" y="275" on="0"/>
        <pt x="368" y="298" on="0"/>
        <pt x="388" y="324" on="0"/>
        <pt x="388" y="324" on="1"/>
        <pt x="403" y="313" on="1"/>
        <pt x="384" y="284" on="0"/>
        <pt x="344" y="253" on="0"/>
        <pt x="314" y="253" on="1"/>
      </contour>
    </TTGlyph>
    <TTGlyph name="asterisk" xMin="28" yMin="393" xMax="332" yMax="747">
      <contour>
        <pt x="169" y="552" on="1"/>
        <pt x="38" y="471" on="1"/>
        <pt x="28" y="489" on="1"/>
        <pt x="158" y="570" on="1"/>
        <pt x="28" y="651" on="1"/>
        <pt x="38" y="669" on="1"/>
        <pt x="169" y="588" on="1"/>
        <pt x="169" y="747" on="1"/>
        <pt x="191" y="747" on="1"/>
        <pt x="191" y="588" on="1"/>
        <pt x="322" y="669" on="1"/>
        <pt x="332" y="651" on="1"/>
        <pt x="202" y="570" on="1"/>
        <pt x="332" y="489" on="1"/>
        <pt x="322" y="471" on="1"/>
        <pt x="191" y="552" on="1"/>
        <pt x="191" y="393" on="1"/>
        <pt x="169" y="393" on="1"/>
      </contour>
    </TTGlyph>
    <TTGlyph name="at" xMin="54" yMin="-94" xMax="711" yMax="589">
      <contour>
        <pt x="245" y="-94" on="0"/>
        <pt x="115" y="-10" on="0"/>
        <pt x="54" y="143" on="0"/>
        <pt x="66" y="243" on="1"/>
        <pt x="79" y="345" on="0"/>
        <pt x="181" y="502" on="0"/>
        <pt x="335" y="589" on="0"/>
        <pt x="424" y="589" on="1"/>
        <pt x="516" y="589" on="0"/>
        <pt x="649" y="509" on="0"/>
        <pt x="711" y="361" on="0"/>
        <pt x="698" y="263" on="1"/>
        <pt x="686" y="172" on="0"/>
        <pt x="600" y="70" on="0"/>
        <pt x="536" y="70" on="1"/>
        <pt x="484" y="70" on="0"/>
        <pt x="431" y="135" on="0"/>
        <pt x="438" y="191" on="1"/>
        <pt x="467" y="425" on="1"/>
        <pt x="489" y="425" on="1"/>
        <pt x="459" y="191" on="1"/>
        <pt x="454" y="147" on="0"/>
        <pt x="497" y="90" on="0"/>
        <pt x="540" y="90" on="1"/>
        <pt x="592" y="90" on="0"/>
        <pt x="664" y="178" on="0"/>
        <pt x="675" y="260" on="1"/>
        <pt x="687" y="352" on="0"/>
        <pt x="630" y="492" on="0"/>
        <pt x="506" y="568" on="0"/>
        <pt x="420" y="568" on="1"/>
        <pt x="338" y="568" on="0"/>
        <pt x="195" y="487" on="0"/>
        <pt x="100" y="339" on="0"/>
        <pt x="88" y="244" on="1"/>
        <pt x="77" y="150" on="0"/>
        <pt x="134" y="6" on="0"/>
        <pt x="256" y="-73" on="0"/>
        <pt x="338" y="-73" on="1"/>
        <pt x="396" y="-73" on="0"/>
        <pt x="497" y="-40" on="0"/>
        <pt x="522" y="-18" on="0"/>
        <pt x="522" y="-18" on="1"/>
        <pt x="536" y="-32" on="1"/>
        <pt x="507" y="-57" on="0"/>
        <pt x="398" y="-94" on="0"/>
        <pt x="334" y="-94" on="1"/>
      </contour>
      <contour>
        <pt x="321" y="68" on="0"/>
        <pt x="280" y="94" on="0"/>
        <pt x="261" y="141" on="0"/>
        <pt x="264" y="170" on="1"/>
        <pt x="265" y="178" on="0"/>
        <pt x="267" y="196" on="0"/>
        <pt x="268" y="205" on="1"/>
        <pt x="269" y="216" on="0"/>
        <pt x="272" y="238" on="0"/>
        <pt x="274" y="249" on="1"/>
        <pt x="276" y="260" on="0"/>
        <pt x="279" y="283" on="0"/>
        <pt x="280" y="294" on="1"/>
        <pt x="281" y="303" on="0"/>
        <pt x="283" y="321" on="0"/>
        <pt x="284" y="329" on="1"/>
        <pt x="289" y="374" on="0"/>
        <pt x="348" y="430" on="0"/>
        <pt x="390" y="430" on="1"/>
        <pt x="416" y="430" on="0"/>
        <pt x="454" y="405" on="0"/>
        <pt x="471" y="359" on="0"/>
        <pt x="468" y="329" on="1"/>
        <pt x="467" y="319" on="0"/>
        <pt x="465" y="298" on="0"/>
        <pt x="464" y="288" on="1"/>
        <pt x="463" y="278" on="0"/>
        <pt x="462" y="259" on="0"/>
        <pt x="461" y="249" on="1"/>
        <pt x="460" y="240" on="0"/>
        <pt x="458" y="220" on="0"/>
        <pt x="457" y="210" on="1"/>
        <pt x="456" y="200" on="0"/>
        <pt x="454" y="180" on="0"/>
        <pt x="453" y="170" on="1"/>
        <pt x="448" y="124" on="0"/>
        <pt x="389" y="68" on="0"/>
        <pt x="349" y="68" on="1"/>
      </contour>
      <contour>
        <pt x="384" y="89" on="0"/>
        <pt x="429" y="134" on="0"/>
        <pt x="435" y="171" on="1"/>
        <pt x="436" y="178" on="0"/>
        <pt x="438" y="190" on="0"/>
        <pt x="439" y="197" on="1"/>
        <pt x="441" y="210" on="0"/>
        <pt x="443" y="236" on="0"/>
        <pt x="445" y="249" on="1"/>
        <pt x="446" y="259" on="0"/>
        <pt x="449" y="279" on="0"/>
        <pt x="450" y="289" on="1"/>
        <pt x="452" y="299" on="0"/>
        <pt x="454" y="318" on="0"/>
        <pt x="455" y="328" on="1"/>
        <pt x="460" y="364" on="0"/>
        <pt x="424" y="410" on="0"/>
        <pt x="392" y="410" on="1"/>
        <pt x="359" y="410" on="0"/>
        <pt x="311" y="364" on="0"/>
        <pt x="306" y="328" on="1"/>
        <pt x="303" y="310" on="0"/>
        <pt x="299" y="274" on="0"/>
        <pt x="297" y="256" on="1"/>
        <pt x="297" y="254" on="0"/>
        <pt x="296" y="251" on="0"/>
        <pt x="296" y="249" on="1"/>
        <pt x="295" y="239" on="0"/>
        <pt x="293" y="220" on="0"/>
        <pt x="291" y="210" on="1"/>
        <pt x="290" y="200" on="0"/>
        <pt x="287" y="181" on="0"/>
        <pt x="286" y="171" on="1"/>
        <pt x="282" y="135" on="0"/>
        <pt x="319" y="89" on="0"/>
        <pt x="352" y="89" on="1"/>
      </contour>
    </TTGlyph>
    <TTGlyph name="b" xMin="77" yMin="-8" xMax="344" yMax="700">
      <contour>
        <pt x="77" y="700" on="1"/>
        <pt x="99" y="700" on="1"/>
        <pt x="99" y="0" on="1"/>
        <pt x="77" y="0" on="1"/>
      </contour>
      <contour>
        <pt x="153" y="-8" on="0"/>
        <pt x="83" y="72" on="0"/>
        <pt x="83" y="135" on="1"/>
        <pt x="83" y="161" on="0"/>
        <pt x="83" y="212" on="0"/>
        <pt x="83" y="246" on="0"/>
        <pt x="83" y="250" on="1"/>
        <pt x="83" y="263" on="0"/>
        <pt x="83" y="288" on="0"/>
        <pt x="83" y="301" on="1"/>
        <pt x="83" y="317" on="0"/>
        <pt x="83" y="349" on="0"/>
        <pt x="83" y="365" on="1"/>
        <pt x="83" y="406" on="0"/>
        <pt x="114" y="471" on="0"/>
        <pt x="172" y="508" on="0"/>
        <pt x="210" y="508" on="1"/>
        <pt x="270" y="508" on="0"/>
        <pt x="344" y="428" on="0"/>
        <pt x="344" y="365" on="1"/>
        <pt x="344" y="340" on="0"/>
        <pt x="344" y="289" on="0"/>
        <pt x="344" y="254" on="0"/>
        <pt x="344" y="241" on="0"/>
        <pt x="344" y="237" on="1"/>
        <pt x="344" y="212" on="0"/>
        <pt x="344" y="161" on="0"/>
        <pt x="344" y="135" on="1"/>
        <pt x="344" y="72" on="0"/>
        <pt x="270" y="-8" on="0"/>
        <pt x="210" y="-8" on="1"/>
      </contour>
      <contour>
        <pt x="258" y="13" on="0"/>
        <pt x="322" y="81" on="0"/>
        <pt x="322" y="135" on="1"/>
        <pt x="322" y="164" on="0"/>
        <pt x="322" y="221" on="0"/>
        <pt x="322" y="250" on="1"/>
        <pt x="322" y="279" on="0"/>
        <pt x="322" y="336" on="0"/>
        <pt x="322" y="365" on="1"/>
        <pt x="322" y="419" on="0"/>
        <pt x="258" y="487" on="0"/>
        <pt x="208" y="487" on="1"/>
        <pt x="160" y="487" on="0"/>
        <pt x="99" y="419" on="0"/>
        <pt x="99" y="365" on="1"/>
        <pt x="99" y="336" on="0"/>
        <pt x="99" y="279" on="0"/>
        <pt x="99" y="250" on="1"/>
        <pt x="99" y="221" on="0"/>
        <pt x="99" y="164" on="0"/>
        <pt x="99" y="135" on="1"/>
        <pt x="99" y="81" on="0"/>
        <pt x="160" y="13" on="0"/>
        <pt x="208" y="13" on="1"/>
      </contour>
    </TTGlyph>
    <TTGlyph name="backslash" xMin="28" yMin="0" xMax="207" yMax="700">
      <contour>
        <pt x="185" y="0" on="1"/>
        <pt x="28" y="700" on="1"/>
        <pt x="50" y="700" on="1"/>
        <pt x="207" y="0" on="1"/>
      </contour>
    </TTGlyph>
    <TTGlyph name="bar" xMin="46" yMin="-80" xMax="68" yMax="760">
      <contour>
        <pt x="46" y="760" on="1"/>
        <pt x="68" y="760" on="1"/>
        <pt x="68" y="-80" on="1"/>
        <pt x="46" y="-80" on="1"/>
      </contour>
    </TTGlyph>
    <TTGlyph name="braceleft" xMin="24" yMin="-103" xMax="199" yMax="756">
      <contour>
        <pt x="116" y="-103" on="0"/>
        <pt x="78" y="-54" on="0"/>
        <pt x="78" y="4" on="1"/>
        <pt x="78" y="228" on="1"/>
        <pt x="78" y="274" on="0"/>
        <pt x="52" y="317" on="0"/>
        <pt x="24" y="320" on="1"/>
        <pt x="24" y="341" on="1"/>
        <pt x="52" y="344" on="0"/>
        <pt x="78" y="387" on="0"/>
        <pt x="78" y="432" on="1"/>
        <pt x="78" y="649" on="1"/>
        <pt x="78" y="707" on="0"/>
        <pt x="116" y="756" on="0"/>
        <pt x="161" y="756" on="1"/>
        <pt x="199" y="756" on="1"/>
        <pt x="199" y="735" on="1"/>
        <pt x="159" y="735" on="1"/>
        <pt x="127" y="735" on="0"/>
        <pt x="100" y="697" on="0"/>
        <pt x="100" y="653" on="1"/>
        <pt x="100" y="437" on="1"/>
        <pt x="100" y="391" on="0"/>
        <pt x="77" y="342" on="0"/>
        <pt x="53" y="331" on="1"/>
        <pt x="77" y="319" on="0"/>
        <pt x="100" y="268" on="0"/>
        <pt x="100" y="223" on="1"/>
        <pt x="100" y="0" on="1"/>
        <pt x="100" y="-44" on="0"/>
        <pt x="127" y="-82" on="0"/>
        <pt x="159" y="-82" on="1"/>
        <pt x="199" y="-82" on="1"/>
        <pt x="199" y="-103" on="1"/>
        <pt x="161" y="-103" on="1"/>
      </contour>
    </TTGlyph>
    <TTGlyph name="braceright" xMin="24" yMin="-103" xMax="199" yMax="756">
      <contour>
        <pt x="24" y="-103" on="1"/>
        <pt x="24" y="-82" on="1"/>
        <pt x="64" y="-82" on="1"/>
        <pt x="96" y="-82" on="0"/>
        <pt x="123" y="-44" on="0"/>
        <pt x="123" y="0" on="1"/>
        <pt x="123" y="223" on="1"/>
        <pt x="123" y="268" on="0"/>
        <pt x="146" y="319" on="0"/>
        <pt x="170" y="331" on="1"/>
        <pt x="146" y="342" on="0"/>
        <pt x="123" y="391" on="0"/>
        <pt x="123" y="437" on="1"/>
        <pt x="123" y="653" on="1"/>
        <pt x="123" y="697" on="0"/>
        <pt x="96" y="735" on="0"/>
        <pt x="64" y="735" on="1"/>
        <pt x="24" y="735" on="1"/>
        <pt x="24" y="756" on="1"/>
        <pt x="62" y="756" on="1"/>
        <pt x="107" y="756" on="0"/>
        <pt x="145" y="707" on="0"/>
        <pt x="145" y="649" on="1"/>
        <pt x="145" y="432" on="1"/>
        <pt x="145" y="387" on="0"/>
        <pt x="171" y="344" on="0"/>
        <pt x="199" y="341" on="1"/>
        <pt x="199" y="320" on="1"/>
        <pt x="171" y="317" on="0"/>
        <pt x="145" y="274" on="0"/>
        <pt x="145" y="228" on="1"/>
        <pt x="145" y="4" on="1"/>
        <pt x="145" y="-54" on="0"/>
        <pt x="107" y="-103" on="0"/>
        <pt x="62" y="-103" on="1"/>
      </contour>
    </TTGlyph>
    <TTGlyph name="bracketleft" xMin="24" yMin="-103" xMax="164" yMax="756">
      <contour>
        <pt x="24" y="756" on="1"/>
        <pt x="163" y="756" on="1"/>
        <pt x="163" y="735" on="1"/>
        <pt x="46" y="735" on="1"/>
        <pt x="46" y="-82" on="1"/>
        <pt x="164" y="-82" on="1"/>
        <pt x="164" y="-103" on="1"/>
        <pt x="24" y="-103" on="1"/>
      </contour>
    </TTGlyph>
    <TTGlyph name="bracketright" xMin="109" yMin="-103" xMax="249" yMax="756">
      <contour>
        <pt x="109" y="-103" on="1"/>
        <pt x="109" y="-82" on="1"/>
        <pt x="227" y="-82" on="1"/>
        <pt x="227" y="735" on="1"/>
        <pt x="110" y="735" on="1"/>
        <pt x="110" y="756" on="1"/>
        <pt x="249" y="756" on="1"/>
        <pt x="249" y="-103" on="1"/>
      </contour>
    </TTGlyph>
    <TTGlyph name="c" xMin="63" yMin="-8" xMax="332" yMax="508">
      <contour>
        <pt x="138" y="-8" on="0"/>
        <pt x="63" y="73" on="0"/>
        <pt x="63" y="135" on="1"/>
        <pt x="63" y="164" on="0"/>
        <pt x="63" y="221" on="0"/>
        <pt x="63" y="250" on="1"/>
        <pt x="63" y="279" on="0"/>
        <pt x="63" y="336" on="0"/>
        <pt x="63" y="365" on="1"/>
        <pt x="63" y="427" on="0"/>
        <pt x="138" y="508" on="0"/>
        <pt x="197" y="508" on="1"/>
        <pt x="236" y="508" on="0"/>
        <pt x="297" y="473" on="0"/>
        <pt x="332" y="417" on="0"/>
        <pt x="332" y="385" on="1"/>
        <pt x="332" y="383" on="0"/>
        <pt x="332" y="376" on="0"/>
        <pt x="332" y="373" on="0"/>
        <pt x="332" y="373" on="1"/>
        <pt x="310" y="373" on="1"/>
        <pt x="310" y="375" on="0"/>
        <pt x="310" y="383" on="0"/>
        <pt x="310" y="385" on="1"/>
        <pt x="310" y="426" on="0"/>
        <pt x="246" y="487" on="0"/>
        <pt x="197" y="487" on="1"/>
        <pt x="147" y="487" on="0"/>
        <pt x="85" y="419" on="0"/>
        <pt x="85" y="365" on="1"/>
        <pt x="85" y="336" on="0"/>
        <pt x="85" y="279" on="0"/>
        <pt x="85" y="250" on="1"/>
        <pt x="85" y="221" on="0"/>
        <pt x="85" y="164" on="0"/>
        <pt x="85" y="135" on="1"/>
        <pt x="85" y="81" on="0"/>
        <pt x="147" y="13" on="0"/>
        <pt x="197" y="13" on="1"/>
        <pt x="246" y="13" on="0"/>
        <pt x="310" y="74" on="0"/>
        <pt x="310" y="115" on="1"/>
        <pt x="310" y="116" on="0"/>
        <pt x="310" y="118" on="0"/>
        <pt x="310" y="119" on="1"/>
        <pt x="310" y="121" on="0"/>
        <pt x="310" y="126" on="0"/>
        <pt x="310" y="127" on="1"/>
        <pt x="332" y="127" on="1"/>
        <pt x="332" y="127" on="0"/>
        <pt x="332" y="126" on="0"/>
        <pt x="332" y="125" on="1"/>
        <pt x="332" y="122" on="0"/>
        <pt x="332" y="117" on="0"/>
        <pt x="332" y="115" on="1"/>
        <pt x="332" y="83" on="0"/>
        <pt x="297" y="27" on="0"/>
        <pt x="236" y="-8" on="0"/>
        <pt x="197" y="-8" on="1"/>
      </contour>
    </TTGlyph>
    <TTGlyph name="ccedilla" xMin="63" yMin="-187" xMax="332" yMax="508">
      <contour>
        <pt x="138" y="-8" on="0"/>
        <pt x="63" y="73" on="0"/>
        <pt x="63" y="135" on="1"/>
        <pt x="63" y="164" on="0"/>
        <pt x="63" y="221" on="0"/>
        <pt x="63" y="250" on="1"/>
        <pt x="63" y="279" on="0"/>
        <pt x="63" y="336" on="0"/>
        <pt x="63" y="365" on="1"/>
        <pt x="63" y="427" on="0"/>
        <pt x="138" y="508" on="0"/>
        <pt x="197" y="508" on="1"/>
        <pt x="236" y="508" on="0"/>
        <pt x="297" y="473" on="0"/>
        <pt x="332" y="417" on="0"/>
        <pt x="332" y="385" on="1"/>
        <pt x="332" y="383" on="0"/>
        <pt x="332" y="376" on="0"/>
        <pt x="332" y="373" on="0"/>
        <pt x="332" y="373" on="1"/>
        <pt x="310" y="373" on="1"/>
        <pt x="310" y="375" on="0"/>
        <pt x="310" y="383" on="0"/>
        <pt x="310" y="385" on="1"/>
        <pt x="310" y="426" on="0"/>
        <pt x="246" y="487" on="0"/>
        <pt x="197" y="487" on="1"/>
        <pt x="147" y="487" on="0"/>
        <pt x="85" y="419" on="0"/>
        <pt x="85" y="365" on="1"/>
        <pt x="85" y="336" on="0"/>
        <pt x="85" y="279" on="0"/>
        <pt x="85" y="250" on="1"/>
        <pt x="85" y="221" on="0"/>
        <pt x="85" y="164" on="0"/>
        <pt x="85" y="135" on="1"/>
        <pt x="85" y="81" on="0"/>
        <pt x="147" y="13" on="0"/>
        <pt x="197" y="13" on="1"/>
        <pt x="246" y="13" on="0"/>
        <pt x="310" y="74" on="0"/>
        <pt x="310" y="115" on="1"/>
        <pt x="310" y="116" on="0"/>
        <pt x="310" y="118" on="0"/>
        <pt x="310" y="126" on="0"/>
        <pt x="310" y="127" on="1"/>
        <pt x="332" y="127" on="1"/>
        <pt x="332" y="127" on="0"/>
        <pt x="332" y="126" on="0"/>
        <pt x="332" y="125" on="1"/>
        <pt x="332" y="122" on="0"/>
        <pt x="332" y="117" on="0"/>
        <pt x="332" y="115" on="1"/>
        <pt x="332" y="83" on="0"/>
        <pt x="297" y="27" on="0"/>
        <pt x="236" y="-8" on="0"/>
        <pt x="197" y="-8" on="1"/>
      </contour>
      <contour>
        <pt x="162" y="-161" on="1"/>
        <pt x="189" y="-169" on="0"/>
        <pt x="230" y="-152" on="0"/>
        <pt x="234" y="-121" on="1"/>
        <pt x="238" y="-90" on="0"/>
        <pt x="207" y="-29" on="0"/>
        <pt x="181" y="-3" on="1"/>
        <pt x="203" y="-3" on="1"/>
        <pt x="237" y="-31" on="0"/>
        <pt x="260" y="-95" on="0"/>
        <pt x="255" y="-127" on="1"/>
        <pt x="251" y="-154" on="0"/>
        <pt x="220" y="-182" on="0"/>
        <pt x="178" y="-187" on="0"/>
        <pt x="157" y="-181" on="1"/>
      </contour>
    </TTGlyph>
    <TTGlyph name="colon" xMin="49" yMin="7" xMax="117" yMax="431">
      <contour>
        <pt x="69" y="350" on="0"/>
        <pt x="49" y="374" on="0"/>
        <pt x="49" y="391" on="1"/>
        <pt x="49" y="402" on="0"/>
        <pt x="58" y="420" on="0"/>
        <pt x="74" y="431" on="0"/>
        <pt x="83" y="431" on="1"/>
        <pt x="92" y="431" on="0"/>
        <pt x="108" y="420" on="0"/>
        <pt x="117" y="402" on="0"/>
        <pt x="117" y="391" on="1"/>
        <pt x="117" y="374" on="0"/>
        <pt x="97" y="350" on="0"/>
        <pt x="83" y="350" on="1"/>
      </contour>
      <contour>
        <pt x="69" y="7" on="0"/>
        <pt x="49" y="31" on="0"/>
        <pt x="49" y="48" on="1"/>
        <pt x="49" y="59" on="0"/>
        <pt x="58" y="77" on="0"/>
        <pt x="74" y="88" on="0"/>
        <pt x="83" y="88" on="1"/>
        <pt x="92" y="88" on="0"/>
        <pt x="108" y="77" on="0"/>
        <pt x="117" y="59" on="0"/>
        <pt x="117" y="48" on="1"/>
        <pt x="117" y="31" on="0"/>
        <pt x="97" y="7" on="0"/>
        <pt x="83" y="7" on="1"/>
      </contour>
    </TTGlyph>
    <TTGlyph name="comma" xMin="42" yMin="-66" xMax="105" yMax="153">
      <contour>
        <pt x="84" y="153" on="1"/>
        <pt x="105" y="153" on="1"/>
        <pt x="62" y="-66" on="1"/>
        <pt x="42" y="-66" on="1"/>
      </contour>
    </TTGlyph>
    <TTGlyph name="d" xMin="63" yMin="-8" xMax="330" yMax="700">
      <contour>
        <pt x="308" y="0" on="1"/>
        <pt x="308" y="700" on="1"/>
        <pt x="330" y="700" on="1"/>
        <pt x="330" y="0" on="1"/>
      </contour>
      <contour>
        <pt x="137" y="-8" on="0"/>
        <pt x="63" y="72" on="0"/>
        <pt x="63" y="135" on="1"/>
        <pt x="63" y="160" on="0"/>
        <pt x="63" y="211" on="0"/>
        <pt x="63" y="246" on="0"/>
        <pt x="63" y="259" on="0"/>
        <pt x="63" y="263" on="1"/>
        <pt x="63" y="289" on="0"/>
        <pt x="63" y="340" on="0"/>
        <pt x="63" y="365" on="1"/>
        <pt x="63" y="428" on="0"/>
        <pt x="137" y="508" on="0"/>
        <pt x="197" y="508" on="1"/>
        <pt x="235" y="508" on="0"/>
        <pt x="293" y="471" on="0"/>
        <pt x="324" y="406" on="0"/>
        <pt x="324" y="365" on="1"/>
        <pt x="324" y="349" on="0"/>
        <pt x="324" y="317" on="0"/>
        <pt x="324" y="301" on="1"/>
        <pt x="324" y="288" on="0"/>
        <pt x="324" y="263" on="0"/>
        <pt x="324" y="241" on="0"/>
        <pt x="324" y="237" on="1"/>
        <pt x="324" y="212" on="0"/>
        <pt x="324" y="161" on="0"/>
        <pt x="324" y="135" on="1"/>
        <pt x="324" y="72" on="0"/>
        <pt x="254" y="-8" on="0"/>
        <pt x="197" y="-8" on="1"/>
      </contour>
      <contour>
        <pt x="247" y="13" on="0"/>
        <pt x="308" y="81" on="0"/>
        <pt x="308" y="135" on="1"/>
        <pt x="308" y="164" on="0"/>
        <pt x="308" y="221" on="0"/>
        <pt x="308" y="250" on="1"/>
        <pt x="308" y="279" on="0"/>
        <pt x="308" y="336" on="0"/>
        <pt x="308" y="365" on="1"/>
        <pt x="308" y="419" on="0"/>
        <pt x="247" y="487" on="0"/>
        <pt x="199" y="487" on="1"/>
        <pt x="149" y="487" on="0"/>
        <pt x="85" y="419" on="0"/>
        <pt x="85" y="365" on="1"/>
        <pt x="85" y="336" on="0"/>
        <pt x="85" y="279" on="0"/>
        <pt x="85" y="250" on="1"/>
        <pt x="85" y="221" on="0"/>
        <pt x="85" y="164" on="0"/>
        <pt x="85" y="135" on="1"/>
        <pt x="85" y="81" on="0"/>
        <pt x="149" y="13" on="0"/>
        <pt x="199" y="13" on="1"/>
      </contour>
    </TTGlyph>
    <TTGlyph name="dollar" xMin="63" yMin="-98" xMax="358" yMax="802">
      <contour>
        <pt x="194" y="802" on="1"/>
        <pt x="214" y="802" on="1"/>
        <pt x="214" y="702" on="1"/>
        <pt x="194" y="702" on="1"/>
      </contour>
      <contour>
        <pt x="199" y="2" on="1"/>
        <pt x="219" y="2" on="1"/>
        <pt x="219" y="-98" on="1"/>
        <pt x="199" y="-98" on="1"/>
      </contour>
      <contour>
        <pt x="167" y="-8" on="0"/>
        <pt x="100" y="35" on="0"/>
        <pt x="63" y="113" on="0"/>
        <pt x="63" y="164" on="1"/>
        <pt x="63" y="192" on="1"/>
        <pt x="84" y="192" on="1"/>
        <pt x="84" y="165" on="1"/>
        <pt x="84" y="96" on="0"/>
        <pt x="154" y="12" on="0"/>
        <pt x="209" y="12" on="1"/>
        <pt x="264" y="12" on="0"/>
        <pt x="336" y="93" on="0"/>
        <pt x="336" y="159" on="1"/>
        <pt x="336" y="200" on="0"/>
        <pt x="306" y="259" on="0"/>
        <pt x="258" y="304" on="0"/>
        <pt x="213" y="338" on="1"/>
        <pt x="210" y="340" on="0"/>
        <pt x="204" y="345" on="0"/>
        <pt x="201" y="347" on="1"/>
        <pt x="150" y="385" on="0"/>
        <pt x="96" y="437" on="0"/>
        <pt x="63" y="504" on="0"/>
        <pt x="63" y="551" on="1"/>
        <pt x="63" y="600" on="0"/>
        <pt x="100" y="671" on="0"/>
        <pt x="164" y="708" on="0"/>
        <pt x="204" y="708" on="1"/>
        <pt x="248" y="708" on="0"/>
        <pt x="315" y="665" on="0"/>
        <pt x="352" y="586" on="0"/>
        <pt x="352" y="535" on="1"/>
        <pt x="352" y="500" on="1"/>
        <pt x="330" y="500" on="1"/>
        <pt x="330" y="534" on="1"/>
        <pt x="330" y="604" on="0"/>
        <pt x="260" y="688" on="0"/>
        <pt x="204" y="688" on="1"/>
        <pt x="152" y="688" on="0"/>
        <pt x="85" y="615" on="0"/>
        <pt x="85" y="549" on="1"/>
        <pt x="85" y="510" on="0"/>
        <pt x="112" y="454" on="0"/>
        <pt x="163" y="407" on="0"/>
        <pt x="213" y="369" on="1"/>
        <pt x="218" y="365" on="0"/>
        <pt x="229" y="357" on="0"/>
        <pt x="234" y="353" on="1"/>
        <pt x="282" y="317" on="0"/>
        <pt x="332" y="266" on="0"/>
        <pt x="358" y="207" on="0"/>
        <pt x="358" y="166" on="1"/>
        <pt x="358" y="87" on="0"/>
        <pt x="275" y="-8" on="0"/>
        <pt x="210" y="-8" on="1"/>
      </contour>
    </TTGlyph>
    <TTGlyph name="e" xMin="63" yMin="-8" xMax="332" yMax="508">
      <contour>
        <pt x="138" y="-8" on="0"/>
        <pt x="63" y="73" on="0"/>
        <pt x="63" y="135" on="1"/>
        <pt x="63" y="161" on="0"/>
        <pt x="63" y="212" on="0"/>
        <pt x="63" y="246" on="0"/>
        <pt x="63" y="250" on="1"/>
        <pt x="63" y="279" on="0"/>
        <pt x="63" y="336" on="0"/>
        <pt x="63" y="365" on="1"/>
        <pt x="63" y="427" on="0"/>
        <pt x="138" y="508" on="0"/>
        <pt x="197" y="508" on="1"/>
        <pt x="236" y="508" on="0"/>
        <pt x="298" y="471" on="0"/>
        <pt x="332" y="406" on="0"/>
        <pt x="332" y="365" on="1"/>
        <pt x="332" y="336" on="0"/>
        <pt x="332" y="277" on="0"/>
        <pt x="332" y="247" on="1"/>
        <pt x="77" y="247" on="1"/>
        <pt x="77" y="267" on="1"/>
        <pt x="319" y="267" on="1"/>
        <pt x="310" y="261" on="1"/>
        <pt x="310" y="283" on="0"/>
        <pt x="310" y="337" on="0"/>
        <pt x="310" y="365" on="1"/>
        <pt x="310" y="419" on="0"/>
        <pt x="247" y="487" on="0"/>
        <pt x="197" y="487" on="1"/>
        <pt x="147" y="487" on="0"/>
        <pt x="85" y="419" on="0"/>
        <pt x="85" y="365" on="1"/>
        <pt x="85" y="336" on="0"/>
        <pt x="85" y="279" on="0"/>
        <pt x="85" y="250" on="1"/>
        <pt x="85" y="221" on="0"/>
        <pt x="85" y="164" on="0"/>
        <pt x="85" y="135" on="1"/>
        <pt x="85" y="81" on="0"/>
        <pt x="147" y="13" on="0"/>
        <pt x="197" y="13" on="1"/>
        <pt x="240" y="13" on="0"/>
        <pt x="300" y="66" on="0"/>
        <pt x="308" y="109" on="1"/>
        <pt x="330" y="109" on="1"/>
        <pt x="322" y="57" on="0"/>
        <pt x="250" y="-8" on="0"/>
        <pt x="197" y="-8" on="1"/>
      </contour>
    </TTGlyph>
    <TTGlyph name="eacute" xMin="63" yMin="-8" xMax="332" yMax="700">
      <contour>
        <pt x="138" y="-8" on="0"/>
        <pt x="63" y="73" on="0"/>
        <pt x="63" y="135" on="1"/>
        <pt x="63" y="161" on="0"/>
        <pt x="63" y="212" on="0"/>
        <pt x="63" y="246" on="0"/>
        <pt x="63" y="250" on="1"/>
        <pt x="63" y="279" on="0"/>
        <pt x="63" y="336" on="0"/>
        <pt x="63" y="365" on="1"/>
        <pt x="63" y="427" on="0"/>
        <pt x="138" y="508" on="0"/>
        <pt x="197" y="508" on="1"/>
        <pt x="236" y="508" on="0"/>
        <pt x="298" y="471" on="0"/>
        <pt x="332" y="406" on="0"/>
        <pt x="332" y="365" on="1"/>
        <pt x="332" y="336" on="0"/>
        <pt x="332" y="277" on="0"/>
        <pt x="332" y="247" on="1"/>
        <pt x="77" y="247" on="1"/>
        <pt x="77" y="267" on="1"/>
        <pt x="319" y="267" on="1"/>
        <pt x="310" y="261" on="1"/>
        <pt x="310" y="283" on="0"/>
        <pt x="310" y="337" on="0"/>
        <pt x="310" y="365" on="1"/>
        <pt x="310" y="419" on="0"/>
        <pt x="247" y="487" on="0"/>
        <pt x="197" y="487" on="1"/>
        <pt x="147" y="487" on="0"/>
        <pt x="85" y="419" on="0"/>
        <pt x="85" y="365" on="1"/>
        <pt x="85" y="336" on="0"/>
        <pt x="85" y="279" on="0"/>
        <pt x="85" y="250" on="1"/>
        <pt x="85" y="221" on="0"/>
        <pt x="85" y="164" on="0"/>
        <pt x="85" y="135" on="1"/>
        <pt x="85" y="81" on="0"/>
        <pt x="147" y="13" on="0"/>
        <pt x="197" y="13" on="1"/>
        <pt x="240" y="13" on="0"/>
        <pt x="300" y="66" on="0"/>
        <pt x="308" y="109" on="1"/>
        <pt x="330" y="109" on="1"/>
        <pt x="322" y="57" on="0"/>
        <pt x="250" y="-8" on="0"/>
        <pt x="197" y="-8" on="1"/>
      </contour>
      <contour>
        <pt x="237" y="700" on="1"/>
        <pt x="261" y="700" on="1"/>
        <pt x="186" y="569" on="1"/>
        <pt x="164" y="569" on="1"/>
      </contour>
    </TTGlyph>
    <TTGlyph name="ecircumflex" xMin="63" yMin="-8" xMax="332" yMax="700">
      <contour>
        <pt x="138" y="-8" on="0"/>
        <pt x="63" y="73" on="0"/>
        <pt x="63" y="135" on="1"/>
        <pt x="63" y="161" on="0"/>
        <pt x="63" y="212" on="0"/>
        <pt x="63" y="246" on="0"/>
        <pt x="63" y="250" on="1"/>
        <pt x="63" y="279" on="0"/>
        <pt x="63" y="336" on="0"/>
        <pt x="63" y="365" on="1"/>
        <pt x="63" y="427" on="0"/>
        <pt x="138" y="508" on="0"/>
        <pt x="197" y="508" on="1"/>
        <pt x="236" y="508" on="0"/>
        <pt x="298" y="471" on="0"/>
        <pt x="332" y="406" on="0"/>
        <pt x="332" y="365" on="1"/>
        <pt x="332" y="336" on="0"/>
        <pt x="332" y="277" on="0"/>
        <pt x="332" y="247" on="1"/>
        <pt x="77" y="247" on="1"/>
        <pt x="77" y="267" on="1"/>
        <pt x="319" y="267" on="1"/>
        <pt x="310" y="261" on="1"/>
        <pt x="310" y="283" on="0"/>
        <pt x="310" y="337" on="0"/>
        <pt x="310" y="365" on="1"/>
        <pt x="310" y="419" on="0"/>
        <pt x="247" y="487" on="0"/>
        <pt x="197" y="487" on="1"/>
        <pt x="147" y="487" on="0"/>
        <pt x="85" y="419" on="0"/>
        <pt x="85" y="365" on="1"/>
        <pt x="85" y="336" on="0"/>
        <pt x="85" y="279" on="0"/>
        <pt x="85" y="250" on="1"/>
        <pt x="85" y="221" on="0"/>
        <pt x="85" y="164" on="0"/>
        <pt x="85" y="135" on="1"/>
        <pt x="85" y="81" on="0"/>
        <pt x="147" y="13" on="0"/>
        <pt x="197" y="13" on="1"/>
        <pt x="240" y="13" on="0"/>
        <pt x="300" y="66" on="0"/>
        <pt x="308" y="109" on="1"/>
        <pt x="330" y="109" on="1"/>
        <pt x="322" y="57" on="0"/>
        <pt x="250" y="-8" on="0"/>
        <pt x="197" y="-8" on="1"/>
      </contour>
      <contour>
        <pt x="183" y="700" on="1"/>
        <pt x="209" y="700" on="1"/>
        <pt x="288" y="581" on="1"/>
        <pt x="256" y="581" on="1"/>
        <pt x="197" y="675" on="1"/>
        <pt x="137" y="581" on="1"/>
        <pt x="106" y="581" on="1"/>
      </contour>
    </TTGlyph>
    <TTGlyph name="edieresis" xMin="63" yMin="-8" xMax="332" yMax="700">
      <contour>
        <pt x="138" y="-8" on="0"/>
        <pt x="63" y="73" on="0"/>
        <pt x="63" y="135" on="1"/>
        <pt x="63" y="161" on="0"/>
        <pt x="63" y="212" on="0"/>
        <pt x="63" y="246" on="0"/>
        <pt x="63" y="250" on="1"/>
        <pt x="63" y="279" on="0"/>
        <pt x="63" y="336" on="0"/>
        <pt x="63" y="365" on="1"/>
        <pt x="63" y="427" on="0"/>
        <pt x="138" y="508" on="0"/>
        <pt x="197" y="508" on="1"/>
        <pt x="236" y="508" on="0"/>
        <pt x="298" y="471" on="0"/>
        <pt x="332" y="406" on="0"/>
        <pt x="332" y="365" on="1"/>
        <pt x="332" y="336" on="0"/>
        <pt x="332" y="277" on="0"/>
        <pt x="332" y="247" on="1"/>
        <pt x="77" y="247" on="1"/>
        <pt x="77" y="267" on="1"/>
        <pt x="319" y="267" on="1"/>
        <pt x="310" y="261" on="1"/>
        <pt x="310" y="283" on="0"/>
        <pt x="310" y="337" on="0"/>
        <pt x="310" y="365" on="1"/>
        <pt x="310" y="419" on="0"/>
        <pt x="247" y="487" on="0"/>
        <pt x="197" y="487" on="1"/>
        <pt x="147" y="487" on="0"/>
        <pt x="85" y="419" on="0"/>
        <pt x="85" y="365" on="1"/>
        <pt x="85" y="336" on="0"/>
        <pt x="85" y="279" on="0"/>
        <pt x="85" y="250" on="1"/>
        <pt x="85" y="221" on="0"/>
        <pt x="85" y="164" on="0"/>
        <pt x="85" y="135" on="1"/>
        <pt x="85" y="81" on="0"/>
        <pt x="147" y="13" on="0"/>
        <pt x="197" y="13" on="1"/>
        <pt x="240" y="13" on="0"/>
        <pt x="300" y="66" on="0"/>
        <pt x="308" y="109" on="1"/>
        <pt x="330" y="109" on="1"/>
        <pt x="322" y="57" on="0"/>
        <pt x="250" y="-8" on="0"/>
        <pt x="197" y="-8" on="1"/>
      </contour>
      <contour>
        <pt x="244" y="619" on="0"/>
        <pt x="224" y="643" on="0"/>
        <pt x="224" y="660" on="1"/>
        <pt x="224" y="671" on="0"/>
        <pt x="233" y="689" on="0"/>
        <pt x="249" y="700" on="0"/>
        <pt x="258" y="700" on="1"/>
        <pt x="267" y="700" on="0"/>
        <pt x="283" y="689" on="0"/>
        <pt x="292" y="671" on="0"/>
        <pt x="292" y="660" on="1"/>
        <pt x="292" y="643" on="0"/>
        <pt x="272" y="619" on="0"/>
        <pt x="258" y="619" on="1"/>
      </contour>
      <contour>
        <pt x="138" y="619" on="0"/>
        <pt x="118" y="643" on="0"/>
        <pt x="118" y="660" on="1"/>
        <pt x="118" y="671" on="0"/>
        <pt x="127" y="689" on="0"/>
        <pt x="143" y="700" on="0"/>
        <pt x="152" y="700" on="1"/>
        <pt x="161" y="700" on="0"/>
        <pt x="177" y="689" on="0"/>
        <pt x="186" y="671" on="0"/>
        <pt x="186" y="660" on="1"/>
        <pt x="186" y="643" on="0"/>
        <pt x="166" y="619" on="0"/>
        <pt x="152" y="619" on="1"/>
      </contour>
    </TTGlyph>
    <TTGlyph name="egrave" xMin="63" yMin="-8" xMax="332" yMax="700">
      <contour>
        <pt x="138" y="-8" on="0"/>
        <pt x="63" y="73" on="0"/>
        <pt x="63" y="135" on="1"/>
        <pt x="63" y="161" on="0"/>
        <pt x="63" y="212" on="0"/>
        <pt x="63" y="246" on="0"/>
        <pt x="63" y="250" on="1"/>
        <pt x="63" y="279" on="0"/>
        <pt x="63" y="336" on="0"/>
        <pt x="63" y="365" on="1"/>
        <pt x="63" y="427" on="0"/>
        <pt x="138" y="508" on="0"/>
        <pt x="197" y="508" on="1"/>
        <pt x="236" y="508" on="0"/>
        <pt x="298" y="471" on="0"/>
        <pt x="332" y="406" on="0"/>
        <pt x="332" y="365" on="1"/>
        <pt x="332" y="336" on="0"/>
        <pt x="332" y="277" on="0"/>
        <pt x="332" y="247" on="1"/>
        <pt x="77" y="247" on="1"/>
        <pt x="77" y="267" on="1"/>
        <pt x="319" y="267" on="1"/>
        <pt x="310" y="261" on="1"/>
        <pt x="310" y="283" on="0"/>
        <pt x="310" y="337" on="0"/>
        <pt x="310" y="365" on="1"/>
        <pt x="310" y="419" on="0"/>
        <pt x="247" y="487" on="0"/>
        <pt x="197" y="487" on="1"/>
        <pt x="147" y="487" on="0"/>
        <pt x="85" y="419" on="0"/>
        <pt x="85" y="365" on="1"/>
        <pt x="85" y="336" on="0"/>
        <pt x="85" y="279" on="0"/>
        <pt x="85" y="250" on="1"/>
        <pt x="85" y="221" on="0"/>
        <pt x="85" y="164" on="0"/>
        <pt x="85" y="135" on="1"/>
        <pt x="85" y="81" on="0"/>
        <pt x="147" y="13" on="0"/>
        <pt x="197" y="13" on="1"/>
        <pt x="240" y="13" on="0"/>
        <pt x="300" y="66" on="0"/>
        <pt x="308" y="109" on="1"/>
        <pt x="330" y="109" on="1"/>
        <pt x="322" y="57" on="0"/>
        <pt x="250" y="-8" on="0"/>
        <pt x="197" y="-8" on="1"/>
      </contour>
      <contour>
        <pt x="187" y="569" on="1"/>
        <pt x="112" y="700" on="1"/>
        <pt x="136" y="700" on="1"/>
        <pt x="209" y="569" on="1"/>
      </contour>
    </TTGlyph>
    <TTGlyph name="ellipsis" xMin="49" yMin="7" xMax="517" yMax="88">
      <contour>
        <pt x="69" y="7" on="0"/>
        <pt x="49" y="31" on="0"/>
        <pt x="49" y="48" on="1"/>
        <pt x="49" y="59" on="0"/>
        <pt x="58" y="77" on="0"/>
        <pt x="74" y="88" on="0"/>
        <pt x="83" y="88" on="1"/>
        <pt x="92" y="88" on="0"/>
        <pt x="108" y="77" on="0"/>
        <pt x="117" y="59" on="0"/>
        <pt x="117" y="48" on="1"/>
        <pt x="117" y="31" on="0"/>
        <pt x="97" y="7" on="0"/>
        <pt x="83" y="7" on="1"/>
      </contour>
      <contour>
        <pt x="269" y="7" on="0"/>
        <pt x="249" y="31" on="0"/>
        <pt x="249" y="48" on="1"/>
        <pt x="249" y="59" on="0"/>
        <pt x="258" y="77" on="0"/>
        <pt x="274" y="88" on="0"/>
        <pt x="283" y="88" on="1"/>
        <pt x="292" y="88" on="0"/>
        <pt x="308" y="77" on="0"/>
        <pt x="317" y="59" on="0"/>
        <pt x="317" y="48" on="1"/>
        <pt x="317" y="31" on="0"/>
        <pt x="297" y="7" on="0"/>
        <pt x="283" y="7" on="1"/>
      </contour>
      <contour>
        <pt x="469" y="7" on="0"/>
        <pt x="449" y="31" on="0"/>
        <pt x="449" y="48" on="1"/>
        <pt x="449" y="59" on="0"/>
        <pt x="458" y="77" on="0"/>
        <pt x="474" y="88" on="0"/>
        <pt x="483" y="88" on="1"/>
        <pt x="492" y="88" on="0"/>
        <pt x="508" y="77" on="0"/>
        <pt x="517" y="59" on="0"/>
        <pt x="517" y="48" on="1"/>
        <pt x="517" y="31" on="0"/>
        <pt x="497" y="7" on="0"/>
        <pt x="483" y="7" on="1"/>
      </contour>
    </TTGlyph>
    <TTGlyph name="equal" xMin="38" yMin="220" xMax="406" yMax="460">
      <contour>
        <pt x="38" y="460" on="1"/>
        <pt x="406" y="460" on="1"/>
        <pt x="406" y="440" on="1"/>
        <pt x="38" y="440" on="1"/>
      </contour>
      <contour>
        <pt x="38" y="240" on="1"/>
        <pt x="406" y="240" on="1"/>
        <pt x="406" y="220" on="1"/>
        <pt x="38" y="220" on="1"/>
      </contour>
    </TTGlyph>
    <TTGlyph name="exclam" xMin="82" yMin="5" xMax="150" yMax="700">
      <contour>
        <pt x="107" y="700" on="1"/>
        <pt x="129" y="700" on="1"/>
        <pt x="128" y="220" on="1"/>
        <pt x="107" y="220" on="1"/>
      </contour>
      <contour>
        <pt x="102" y="5" on="0"/>
        <pt x="82" y="29" on="0"/>
        <pt x="82" y="46" on="1"/>
        <pt x="82" y="57" on="0"/>
        <pt x="91" y="75" on="0"/>
        <pt x="107" y="86" on="0"/>
        <pt x="116" y="86" on="1"/>
        <pt x="125" y="86" on="0"/>
        <pt x="141" y="75" on="0"/>
        <pt x="150" y="57" on="0"/>
        <pt x="150" y="46" on="1"/>
        <pt x="150" y="29" on="0"/>
        <pt x="130" y="5" on="0"/>
        <pt x="116" y="5" on="1"/>
      </contour>
    </TTGlyph>
    <TTGlyph name="f" xMin="34" yMin="0" xMax="224" yMax="710">
      <contour>
        <pt x="94" y="550" on="1"/>
        <pt x="94" y="603" on="0"/>
        <pt x="113" y="673" on="0"/>
        <pt x="158" y="710" on="0"/>
        <pt x="198" y="710" on="1"/>
        <pt x="224" y="710" on="1"/>
        <pt x="224" y="689" on="1"/>
        <pt x="199" y="689" on="1"/>
        <pt x="150" y="689" on="0"/>
        <pt x="116" y="622" on="0"/>
        <pt x="116" y="550" on="1"/>
        <pt x="116" y="0" on="1"/>
        <pt x="94" y="0" on="1"/>
      </contour>
      <contour>
        <pt x="34" y="500" on="1"/>
        <pt x="220" y="500" on="1"/>
        <pt x="220" y="479" on="1"/>
        <pt x="34" y="479" on="1"/>
      </contour>
    </TTGlyph>
    <TTGlyph name="g" xMin="63" yMin="-202" xMax="331" yMax="508">
      <contour>
        <pt x="153" y="-179" on="1"/>
        <pt x="207" y="-181" on="0"/>
        <pt x="275" y="-140" on="0"/>
        <pt x="308" y="-60" on="0"/>
        <pt x="308" y="0" on="1"/>
        <pt x="308" y="500" on="1"/>
        <pt x="331" y="500" on="1"/>
        <pt x="331" y="0" on="1"/>
        <pt x="331" y="-66" on="0"/>
        <pt x="293" y="-156" on="0"/>
        <pt x="214" y="-202" on="0"/>
        <pt x="153" y="-200" on="1"/>
      </contour>
      <contour>
        <pt x="137" y="-8" on="0"/>
        <pt x="63" y="72" on="0"/>
        <pt x="63" y="135" on="1"/>
        <pt x="63" y="164" on="0"/>
        <pt x="63" y="221" on="0"/>
        <pt x="63" y="250" on="1"/>
        <pt x="63" y="279" on="0"/>
        <pt x="63" y="336" on="0"/>
        <pt x="63" y="365" on="1"/>
        <pt x="63" y="428" on="0"/>
        <pt x="137" y="508" on="0"/>
        <pt x="197" y="508" on="1"/>
        <pt x="254" y="508" on="0"/>
        <pt x="324" y="428" on="0"/>
        <pt x="324" y="365" on="1"/>
        <pt x="324" y="349" on="0"/>
        <pt x="324" y="317" on="0"/>
        <pt x="324" y="301" on="1"/>
        <pt x="324" y="288" on="0"/>
        <pt x="324" y="263" on="0"/>
        <pt x="324" y="250" on="1"/>
        <pt x="324" y="240" on="0"/>
        <pt x="324" y="219" on="0"/>
        <pt x="324" y="208" on="1"/>
        <pt x="324" y="190" on="0"/>
        <pt x="324" y="153" on="0"/>
        <pt x="324" y="135" on="1"/>
        <pt x="324" y="94" on="0"/>
        <pt x="293" y="29" on="0"/>
        <pt x="235" y="-8" on="0"/>
        <pt x="197" y="-8" on="1"/>
      </contour>
      <contour>
        <pt x="247" y="13" on="0"/>
        <pt x="308" y="81" on="0"/>
        <pt x="308" y="135" on="1"/>
        <pt x="308" y="164" on="0"/>
        <pt x="308" y="221" on="0"/>
        <pt x="308" y="250" on="1"/>
        <pt x="308" y="279" on="0"/>
        <pt x="308" y="336" on="0"/>
        <pt x="308" y="365" on="1"/>
        <pt x="308" y="419" on="0"/>
        <pt x="247" y="487" on="0"/>
        <pt x="199" y="487" on="1"/>
        <pt x="149" y="487" on="0"/>
        <pt x="85" y="419" on="0"/>
        <pt x="85" y="365" on="1"/>
        <pt x="85" y="336" on="0"/>
        <pt x="85" y="279" on="0"/>
        <pt x="85" y="250" on="1"/>
        <pt x="85" y="221" on="0"/>
        <pt x="85" y="164" on="0"/>
        <pt x="85" y="135" on="1"/>
        <pt x="85" y="81" on="0"/>
        <pt x="149" y="13" on="0"/>
        <pt x="199" y="13" on="1"/>
      </contour>
    </TTGlyph>
    <TTGlyph name="glyph00048" xMin="42" yMin="0" xMax="110" yMax="700">
      <contour>
        <pt x="66" y="500" on="1"/>
        <pt x="88" y="500" on="1"/>
        <pt x="88" y="0" on="1"/>
        <pt x="66" y="0" on="1"/>
      </contour>
      <contour>
        <pt x="62" y="619" on="0"/>
        <pt x="42" y="643" on="0"/>
        <pt x="42" y="660" on="1"/>
        <pt x="42" y="671" on="0"/>
        <pt x="51" y="689" on="0"/>
        <pt x="67" y="700" on="0"/>
        <pt x="76" y="700" on="1"/>
        <pt x="85" y="700" on="0"/>
        <pt x="101" y="689" on="0"/>
        <pt x="110" y="671" on="0"/>
        <pt x="110" y="660" on="1"/>
        <pt x="110" y="643" on="0"/>
        <pt x="90" y="619" on="0"/>
        <pt x="76" y="619" on="1"/>
      </contour>
    </TTGlyph>
    <TTGlyph name="glyph00071" xMin="91" yMin="-8" xMax="520" yMax="700">
      <contour>
        <pt x="91" y="700" on="1"/>
        <pt x="113" y="700" on="1"/>
        <pt x="113" y="0" on="1"/>
        <pt x="91" y="0" on="1"/>
      </contour>
      <contour>
        <pt x="333" y="-8" on="0"/>
        <pt x="268" y="31" on="0"/>
        <pt x="232" y="102" on="0"/>
        <pt x="232" y="148" on="1"/>
        <pt x="232" y="251" on="1"/>
        <pt x="254" y="251" on="1"/>
        <pt x="254" y="147" on="1"/>
        <pt x="254" y="87" on="0"/>
        <pt x="321" y="13" on="0"/>
        <pt x="376" y="13" on="1"/>
        <pt x="431" y="13" on="0"/>
        <pt x="498" y="87" on="0"/>
        <pt x="498" y="147" on="1"/>
        <pt x="498" y="700" on="1"/>
        <pt x="520" y="700" on="1"/>
        <pt x="520" y="148" on="1"/>
        <pt x="520" y="102" on="0"/>
        <pt x="484" y="31" on="0"/>
        <pt x="419" y="-8" on="0"/>
        <pt x="376" y="-8" on="1"/>
      </contour>
    </TTGlyph>
    <TTGlyph name="glyph00072" xMin="34" yMin="0" xMax="642" yMax="710">
      <contour>
        <pt x="94" y="550" on="1"/>
        <pt x="94" y="603" on="0"/>
        <pt x="113" y="673" on="0"/>
        <pt x="158" y="710" on="0"/>
        <pt x="198" y="710" on="1"/>
        <pt x="224" y="710" on="1"/>
        <pt x="224" y="689" on="1"/>
        <pt x="199" y="689" on="1"/>
        <pt x="150" y="689" on="0"/>
        <pt x="116" y="622" on="0"/>
        <pt x="116" y="550" on="1"/>
        <pt x="116" y="0" on="1"/>
        <pt x="94" y="0" on="1"/>
      </contour>
      <contour>
        <pt x="34" y="500" on="1"/>
        <pt x="220" y="500" on="1"/>
        <pt x="220" y="479" on="1"/>
        <pt x="34" y="479" on="1"/>
      </contour>
      <contour>
        <pt x="356" y="550" on="1"/>
        <pt x="356" y="603" on="0"/>
        <pt x="375" y="673" on="0"/>
        <pt x="420" y="710" on="0"/>
        <pt x="460" y="710" on="1"/>
        <pt x="486" y="710" on="1"/>
        <pt x="486" y="689" on="1"/>
        <pt x="461" y="689" on="1"/>
        <pt x="412" y="689" on="0"/>
        <pt x="378" y="622" on="0"/>
        <pt x="378" y="550" on="1"/>
        <pt x="378" y="0" on="1"/>
        <pt x="356" y="0" on="1"/>
      </contour>
      <contour>
        <pt x="296" y="500" on="1"/>
        <pt x="482" y="500" on="1"/>
        <pt x="482" y="479" on="1"/>
        <pt x="296" y="479" on="1"/>
      </contour>
      <contour>
        <pt x="606" y="500" on="1"/>
        <pt x="628" y="500" on="1"/>
        <pt x="628" y="0" on="1"/>
        <pt x="606" y="0" on="1"/>
      </contour>
      <contour>
        <pt x="606" y="620" on="0"/>
        <pt x="590" y="637" on="0"/>
        <pt x="590" y="650" on="1"/>
        <pt x="590" y="662" on="0"/>
        <pt x="606" y="679" on="0"/>
        <pt x="617" y="679" on="1"/>
        <pt x="627" y="679" on="0"/>
        <pt x="642" y="662" on="0"/>
        <pt x="642" y="650" on="1"/>
        <pt x="642" y="637" on="0"/>
        <pt x="628" y="620" on="0"/>
        <pt x="617" y="620" on="1"/>
      </contour>
    </TTGlyph>
    <TTGlyph name="glyph00073" xMin="34" yMin="0" xMax="616" yMax="710">
      <contour>
        <pt x="94" y="550" on="1"/>
        <pt x="94" y="603" on="0"/>
        <pt x="113" y="673" on="0"/>
        <pt x="158" y="710" on="0"/>
        <pt x="198" y="710" on="1"/>
        <pt x="224" y="710" on="1"/>
        <pt x="224" y="689" on="1"/>
        <pt x="199" y="689" on="1"/>
        <pt x="150" y="689" on="0"/>
        <pt x="116" y="622" on="0"/>
        <pt x="116" y="550" on="1"/>
        <pt x="116" y="0" on="1"/>
        <pt x="94" y="0" on="1"/>
      </contour>
      <contour>
        <pt x="34" y="500" on="1"/>
        <pt x="220" y="500" on="1"/>
        <pt x="220" y="479" on="1"/>
        <pt x="34" y="479" on="1"/>
      </contour>
      <contour>
        <pt x="356" y="550" on="1"/>
        <pt x="356" y="603" on="0"/>
        <pt x="375" y="673" on="0"/>
        <pt x="420" y="710" on="0"/>
        <pt x="460" y="710" on="1"/>
        <pt x="486" y="710" on="1"/>
        <pt x="486" y="689" on="1"/>
        <pt x="461" y="689" on="1"/>
        <pt x="412" y="689" on="0"/>
        <pt x="378" y="622" on="0"/>
        <pt x="378" y="550" on="1"/>
        <pt x="378" y="0" on="1"/>
        <pt x="356" y="0" on="1"/>
      </contour>
      <contour>
        <pt x="296" y="500" on="1"/>
        <pt x="482" y="500" on="1"/>
        <pt x="482" y="479" on="1"/>
        <pt x="296" y="479" on="1"/>
      </contour>
      <contour>
        <pt x="594" y="700" on="1"/>
        <pt x="616" y="700" on="1"/>
        <pt x="616" y="0" on="1"/>
        <pt x="594" y="0" on="1"/>
      </contour>
    </TTGlyph>
    <TTGlyph name="glyph00074" xMin="34" yMin="0" xMax="396" yMax="710">
      <contour>
        <pt x="94" y="550" on="1"/>
        <pt x="94" y="603" on="0"/>
        <pt x="113" y="673" on="0"/>
        <pt x="158" y="710" on="0"/>
        <pt x="198" y="710" on="1"/>
        <pt x="224" y="710" on="1"/>
        <pt x="224" y="689" on="1"/>
        <pt x="199" y="689" on="1"/>
        <pt x="150" y="689" on="0"/>
        <pt x="116" y="622" on="0"/>
        <pt x="116" y="550" on="1"/>
        <pt x="116" y="0" on="1"/>
        <pt x="94" y="0" on="1"/>
      </contour>
      <contour>
        <pt x="34" y="500" on="1"/>
        <pt x="220" y="500" on="1"/>
        <pt x="220" y="479" on="1"/>
        <pt x="34" y="479" on="1"/>
      </contour>
      <contour>
        <pt x="351" y="500" on="1"/>
        <pt x="373" y="500" on="1"/>
        <pt x="373" y="0" on="1"/>
        <pt x="351" y="0" on="1"/>
      </contour>
      <contour>
        <pt x="348" y="619" on="0"/>
        <pt x="328" y="643" on="0"/>
        <pt x="328" y="660" on="1"/>
        <pt x="328" y="671" on="0"/>
        <pt x="337" y="689" on="0"/>
        <pt x="353" y="700" on="0"/>
        <pt x="362" y="700" on="1"/>
        <pt x="371" y="700" on="0"/>
        <pt x="387" y="689" on="0"/>
        <pt x="396" y="671" on="0"/>
        <pt x="396" y="660" on="1"/>
        <pt x="396" y="643" on="0"/>
        <pt x="376" y="619" on="0"/>
        <pt x="362" y="619" on="1"/>
      </contour>
    </TTGlyph>
    <TTGlyph name="glyph00075" xMin="34" yMin="0" xMax="354" yMax="710">
      <contour>
        <pt x="94" y="550" on="1"/>
        <pt x="94" y="603" on="0"/>
        <pt x="113" y="673" on="0"/>
        <pt x="158" y="710" on="0"/>
        <pt x="198" y="710" on="1"/>
        <pt x="224" y="710" on="1"/>
        <pt x="224" y="689" on="1"/>
        <pt x="199" y="689" on="1"/>
        <pt x="150" y="689" on="0"/>
        <pt x="116" y="622" on="0"/>
        <pt x="116" y="550" on="1"/>
        <pt x="116" y="0" on="1"/>
        <pt x="94" y="0" on="1"/>
      </contour>
      <contour>
        <pt x="34" y="500" on="1"/>
        <pt x="220" y="500" on="1"/>
        <pt x="220" y="479" on="1"/>
        <pt x="34" y="479" on="1"/>
      </contour>
      <contour>
        <pt x="332" y="700" on="1"/>
        <pt x="354" y="700" on="1"/>
        <pt x="354" y="0" on="1"/>
        <pt x="332" y="0" on="1"/>
      </contour>
    </TTGlyph>
    <TTGlyph name="glyph00076" xMin="63" yMin="-211" xMax="508" yMax="679">
      <contour>
        <pt x="382" y="-190" on="1"/>
        <pt x="419" y="-190" on="0"/>
        <pt x="464" y="-140" on="0"/>
        <pt x="469" y="-95" on="1"/>
        <pt x="470" y="-90" on="0"/>
        <pt x="470" y="-79" on="0"/>
        <pt x="470" y="-74" on="1"/>
        <pt x="470" y="500" on="1"/>
        <pt x="492" y="500" on="1"/>
        <pt x="492" y="-74" on="1"/>
        <pt x="492" y="-117" on="0"/>
        <pt x="466" y="-178" on="0"/>
        <pt x="417" y="-211" on="0"/>
        <pt x="382" y="-211" on="1"/>
      </contour>
      <contour>
        <pt x="469" y="620" on="0"/>
        <pt x="455" y="636" on="0"/>
        <pt x="455" y="650" on="1"/>
        <pt x="455" y="659" on="0"/>
        <pt x="462" y="672" on="0"/>
        <pt x="473" y="679" on="0"/>
        <pt x="481" y="679" on="1"/>
        <pt x="489" y="679" on="0"/>
        <pt x="501" y="672" on="0"/>
        <pt x="508" y="659" on="0"/>
        <pt x="508" y="650" on="1"/>
        <pt x="508" y="636" on="0"/>
        <pt x="493" y="620" on="0"/>
        <pt x="481" y="620" on="1"/>
      </contour>
      <contour>
        <pt x="153" y="-179" on="1"/>
        <pt x="207" y="-181" on="0"/>
        <pt x="275" y="-140" on="0"/>
        <pt x="308" y="-60" on="0"/>
        <pt x="308" y="0" on="1"/>
        <pt x="308" y="500" on="1"/>
        <pt x="331" y="500" on="1"/>
        <pt x="331" y="0" on="1"/>
        <pt x="331" y="-66" on="0"/>
        <pt x="293" y="-156" on="0"/>
        <pt x="214" y="-202" on="0"/>
        <pt x="153" y="-200" on="1"/>
      </contour>
      <contour>
        <pt x="137" y="-8" on="0"/>
        <pt x="63" y="72" on="0"/>
        <pt x="63" y="135" on="1"/>
        <pt x="63" y="164" on="0"/>
        <pt x="63" y="221" on="0"/>
        <pt x="63" y="250" on="1"/>
        <pt x="63" y="279" on="0"/>
        <pt x="63" y="336" on="0"/>
        <pt x="63" y="365" on="1"/>
        <pt x="63" y="428" on="0"/>
        <pt x="137" y="508" on="0"/>
        <pt x="197" y="508" on="1"/>
        <pt x="254" y="508" on="0"/>
        <pt x="324" y="428" on="0"/>
        <pt x="324" y="365" on="1"/>
        <pt x="324" y="352" on="0"/>
        <pt x="324" y="325" on="0"/>
        <pt x="324" y="311" on="1"/>
        <pt x="324" y="295" on="0"/>
        <pt x="324" y="265" on="0"/>
        <pt x="324" y="250" on="1"/>
        <pt x="324" y="237" on="0"/>
        <pt x="324" y="210" on="0"/>
        <pt x="324" y="197" on="1"/>
        <pt x="324" y="181" on="0"/>
        <pt x="324" y="151" on="0"/>
        <pt x="324" y="135" on="1"/>
        <pt x="324" y="94" on="0"/>
        <pt x="293" y="29" on="0"/>
        <pt x="235" y="-8" on="0"/>
        <pt x="197" y="-8" on="1"/>
      </contour>
      <contour>
        <pt x="247" y="13" on="0"/>
        <pt x="308" y="81" on="0"/>
        <pt x="308" y="135" on="1"/>
        <pt x="308" y="164" on="0"/>
        <pt x="308" y="221" on="0"/>
        <pt x="308" y="250" on="1"/>
        <pt x="308" y="279" on="0"/>
        <pt x="308" y="336" on="0"/>
        <pt x="308" y="365" on="1"/>
        <pt x="308" y="419" on="0"/>
        <pt x="247" y="487" on="0"/>
        <pt x="199" y="487" on="1"/>
        <pt x="149" y="487" on="0"/>
        <pt x="85" y="419" on="0"/>
        <pt x="85" y="365" on="1"/>
        <pt x="85" y="336" on="0"/>
        <pt x="85" y="279" on="0"/>
        <pt x="85" y="250" on="1"/>
        <pt x="85" y="221" on="0"/>
        <pt x="85" y="164" on="0"/>
        <pt x="85" y="135" on="1"/>
        <pt x="85" y="81" on="0"/>
        <pt x="149" y="13" on="0"/>
        <pt x="199" y="13" on="1"/>
      </contour>
    </TTGlyph>
    <TTGlyph name="glyph00077" xMin="66" yMin="-211" xMax="319" yMax="700">
      <contour>
        <pt x="89" y="500" on="1"/>
        <pt x="111" y="500" on="1"/>
        <pt x="111" y="0" on="1"/>
        <pt x="89" y="0" on="1"/>
      </contour>
      <contour>
        <pt x="185" y="-190" on="1"/>
        <pt x="213" y="-190" on="0"/>
        <pt x="252" y="-162" on="0"/>
        <pt x="273" y="-110" on="0"/>
        <pt x="273" y="-74" on="1"/>
        <pt x="273" y="500" on="1"/>
        <pt x="295" y="500" on="1"/>
        <pt x="295" y="-74" on="1"/>
        <pt x="295" y="-117" on="0"/>
        <pt x="269" y="-178" on="0"/>
        <pt x="220" y="-211" on="0"/>
        <pt x="185" y="-211" on="1"/>
      </contour>
      <contour>
        <pt x="86" y="619" on="0"/>
        <pt x="66" y="643" on="0"/>
        <pt x="66" y="660" on="1"/>
        <pt x="66" y="671" on="0"/>
        <pt x="75" y="689" on="0"/>
        <pt x="91" y="700" on="0"/>
        <pt x="100" y="700" on="1"/>
        <pt x="109" y="700" on="0"/>
        <pt x="125" y="689" on="0"/>
        <pt x="134" y="671" on="0"/>
        <pt x="134" y="660" on="1"/>
        <pt x="134" y="643" on="0"/>
        <pt x="114" y="619" on="0"/>
        <pt x="100" y="619" on="1"/>
      </contour>
      <contour>
        <pt x="271" y="619" on="0"/>
        <pt x="251" y="643" on="0"/>
        <pt x="251" y="660" on="1"/>
        <pt x="251" y="671" on="0"/>
        <pt x="260" y="689" on="0"/>
        <pt x="276" y="700" on="0"/>
        <pt x="285" y="700" on="1"/>
        <pt x="294" y="700" on="0"/>
        <pt x="310" y="689" on="0"/>
        <pt x="319" y="671" on="0"/>
        <pt x="319" y="660" on="1"/>
        <pt x="319" y="643" on="0"/>
        <pt x="299" y="619" on="0"/>
        <pt x="285" y="619" on="1"/>
      </contour>
    </TTGlyph>
    <TTGlyph name="glyph00078" xMin="-120" yMin="0" xMax="360" yMax="700">
      <contour>
        <pt x="337" y="700" on="1"/>
        <pt x="360" y="700" on="1"/>
        <pt x="-97" y="0" on="1"/>
        <pt x="-120" y="0" on="1"/>
      </contour>
    </TTGlyph>
    <TTGlyph name="glyph00100" xMin="38" yMin="301" xMax="554" yMax="322">
      <contour>
        <pt x="38" y="322" on="1"/>
        <pt x="554" y="322" on="1"/>
        <pt x="554" y="301" on="1"/>
        <pt x="38" y="301" on="1"/>
      </contour>
    </TTGlyph>
    <TTGlyph name="grave" xMin="28" yMin="569" xMax="125" yMax="700">
      <contour>
        <pt x="103" y="569" on="1"/>
        <pt x="28" y="700" on="1"/>
        <pt x="52" y="700" on="1"/>
        <pt x="125" y="569" on="1"/>
      </contour>
    </TTGlyph>
    <TTGlyph name="greater" xMin="38" yMin="64" xMax="406" yMax="470">
      <contour>
        <pt x="38" y="89" on="1"/>
        <pt x="386" y="267" on="1"/>
        <pt x="38" y="445" on="1"/>
        <pt x="38" y="470" on="1"/>
        <pt x="406" y="279" on="1"/>
        <pt x="406" y="255" on="1"/>
        <pt x="38" y="64" on="1"/>
      </contour>
    </TTGlyph>
    <TTGlyph name="h" xMin="77" yMin="0" xMax="338" yMax="700">
      <contour>
        <pt x="77" y="700" on="1"/>
        <pt x="99" y="700" on="1"/>
        <pt x="99" y="0" on="1"/>
        <pt x="77" y="0" on="1"/>
      </contour>
      <contour>
        <pt x="316" y="354" on="1"/>
        <pt x="316" y="416" on="0"/>
        <pt x="260" y="486" on="0"/>
        <pt x="210" y="486" on="1"/>
        <pt x="159" y="486" on="0"/>
        <pt x="99" y="411" on="0"/>
        <pt x="99" y="346" on="1"/>
        <pt x="85" y="346" on="1"/>
        <pt x="85" y="422" on="0"/>
        <pt x="154" y="507" on="0"/>
        <pt x="213" y="507" on="1"/>
        <pt x="252" y="507" on="0"/>
        <pt x="308" y="471" on="0"/>
        <pt x="338" y="404" on="0"/>
        <pt x="338" y="357" on="1"/>
        <pt x="338" y="0" on="1"/>
        <pt x="316" y="0" on="1"/>
      </contour>
    </TTGlyph>
    <TTGlyph name="hyphen" xMin="38" yMin="311" xMax="263" yMax="332">
      <contour>
        <pt x="38" y="332" on="1"/>
        <pt x="263" y="332" on="1"/>
        <pt x="263" y="311" on="1"/>
        <pt x="38" y="311" on="1"/>
      </contour>
    </TTGlyph>
    <TTGlyph name="i" xMin="66" yMin="0" xMax="134" yMax="700">
      <contour>
        <pt x="89" y="500" on="1"/>
        <pt x="111" y="500" on="1"/>
        <pt x="111" y="0" on="1"/>
        <pt x="89" y="0" on="1"/>
      </contour>
      <contour>
        <pt x="86" y="619" on="0"/>
        <pt x="66" y="643" on="0"/>
        <pt x="66" y="660" on="1"/>
        <pt x="66" y="671" on="0"/>
        <pt x="75" y="689" on="0"/>
        <pt x="91" y="700" on="0"/>
        <pt x="100" y="700" on="1"/>
        <pt x="109" y="700" on="0"/>
        <pt x="125" y="689" on="0"/>
        <pt x="134" y="671" on="0"/>
        <pt x="134" y="660" on="1"/>
        <pt x="134" y="643" on="0"/>
        <pt x="114" y="619" on="0"/>
        <pt x="100" y="619" on="1"/>
      </contour>
    </TTGlyph>
    <TTGlyph name="icircumflex" xMin="-14" yMin="0" xMax="168" yMax="700">
      <contour>
        <pt x="66" y="500" on="1"/>
        <pt x="88" y="500" on="1"/>
        <pt x="88" y="0" on="1"/>
        <pt x="66" y="0" on="1"/>
      </contour>
      <contour>
        <pt x="63" y="700" on="1"/>
        <pt x="89" y="700" on="1"/>
        <pt x="168" y="581" on="1"/>
        <pt x="136" y="581" on="1"/>
        <pt x="77" y="675" on="1"/>
        <pt x="17" y="581" on="1"/>
        <pt x="-14" y="581" on="1"/>
      </contour>
    </TTGlyph>
    <TTGlyph name="idieresis" xMin="-10" yMin="0" xMax="164" yMax="700">
      <contour>
        <pt x="66" y="500" on="1"/>
        <pt x="88" y="500" on="1"/>
        <pt x="88" y="0" on="1"/>
        <pt x="66" y="0" on="1"/>
      </contour>
      <contour>
        <pt x="116" y="619" on="0"/>
        <pt x="96" y="643" on="0"/>
        <pt x="96" y="660" on="1"/>
        <pt x="96" y="671" on="0"/>
        <pt x="105" y="689" on="0"/>
        <pt x="121" y="700" on="0"/>
        <pt x="130" y="700" on="1"/>
        <pt x="139" y="700" on="0"/>
        <pt x="155" y="689" on="0"/>
        <pt x="164" y="671" on="0"/>
        <pt x="164" y="660" on="1"/>
        <pt x="164" y="643" on="0"/>
        <pt x="144" y="619" on="0"/>
        <pt x="130" y="619" on="1"/>
      </contour>
      <contour>
        <pt x="10" y="619" on="0"/>
        <pt x="-10" y="643" on="0"/>
        <pt x="-10" y="660" on="1"/>
        <pt x="-10" y="671" on="0"/>
        <pt x="-1" y="689" on="0"/>
        <pt x="15" y="700" on="0"/>
        <pt x="24" y="700" on="1"/>
        <pt x="33" y="700" on="0"/>
        <pt x="49" y="689" on="0"/>
        <pt x="58" y="671" on="0"/>
        <pt x="58" y="660" on="1"/>
        <pt x="58" y="643" on="0"/>
        <pt x="38" y="619" on="0"/>
        <pt x="24" y="619" on="1"/>
      </contour>
    </TTGlyph>
    <TTGlyph name="j" xMin="-11" yMin="-211" xMax="123" yMax="700">
      <contour>
        <pt x="-11" y="-190" on="1"/>
        <pt x="17" y="-190" on="0"/>
        <pt x="56" y="-162" on="0"/>
        <pt x="77" y="-110" on="0"/>
        <pt x="77" y="-74" on="1"/>
        <pt x="77" y="500" on="1"/>
        <pt x="99" y="500" on="1"/>
        <pt x="99" y="-74" on="1"/>
        <pt x="99" y="-117" on="0"/>
        <pt x="73" y="-178" on="0"/>
        <pt x="24" y="-211" on="0"/>
        <pt x="-11" y="-211" on="1"/>
      </contour>
      <contour>
        <pt x="75" y="619" on="0"/>
        <pt x="55" y="643" on="0"/>
        <pt x="55" y="660" on="1"/>
        <pt x="55" y="671" on="0"/>
        <pt x="64" y="689" on="0"/>
        <pt x="80" y="700" on="0"/>
        <pt x="89" y="700" on="1"/>
        <pt x="98" y="700" on="0"/>
        <pt x="114" y="689" on="0"/>
        <pt x="123" y="671" on="0"/>
        <pt x="123" y="660" on="1"/>
        <pt x="123" y="643" on="0"/>
        <pt x="103" y="619" on="0"/>
        <pt x="89" y="619" on="1"/>
      </contour>
    </TTGlyph>
    <TTGlyph name="k" xMin="77" yMin="0" xMax="342" yMax="700">
      <contour>
        <pt x="77" y="700" on="1"/>
        <pt x="99" y="700" on="1"/>
        <pt x="99" y="232" on="1"/>
        <pt x="300" y="500" on="1"/>
        <pt x="326" y="500" on="1"/>
        <pt x="222" y="363" on="1"/>
        <pt x="342" y="0" on="1"/>
        <pt x="318" y="0" on="1"/>
        <pt x="207" y="345" on="1"/>
        <pt x="99" y="200" on="1"/>
        <pt x="99" y="0" on="1"/>
        <pt x="77" y="0" on="1"/>
      </contour>
    </TTGlyph>
    <TTGlyph name="l" xMin="70" yMin="0" xMax="92" yMax="700">
      <contour>
        <pt x="70" y="700" on="1"/>
        <pt x="92" y="700" on="1"/>
        <pt x="92" y="0" on="1"/>
        <pt x="70" y="0" on="1"/>
      </contour>
    </TTGlyph>
    <TTGlyph name="less" xMin="38" yMin="64" xMax="406" yMax="470">
      <contour>
        <pt x="38" y="255" on="1"/>
        <pt x="38" y="279" on="1"/>
        <pt x="406" y="470" on="1"/>
        <pt x="406" y="445" on="1"/>
        <pt x="58" y="267" on="1"/>
        <pt x="406" y="89" on="1"/>
        <pt x="406" y="64" on="1"/>
      </contour>
    </TTGlyph>
    <TTGlyph name="m" xMin="77" yMin="0" xMax="559" yMax="507">
      <contour>
        <pt x="537" y="344" on="1"/>
        <pt x="537" y="409" on="0"/>
        <pt x="481" y="486" on="0"/>
        <pt x="435" y="486" on="1"/>
        <pt x="387" y="486" on="0"/>
        <pt x="329" y="411" on="0"/>
        <pt x="329" y="346" on="1"/>
        <pt x="312" y="346" on="1"/>
        <pt x="312" y="397" on="0"/>
        <pt x="345" y="470" on="0"/>
        <pt x="403" y="507" on="0"/>
        <pt x="440" y="507" on="1"/>
        <pt x="493" y="507" on="0"/>
        <pt x="559" y="420" on="0"/>
        <pt x="559" y="347" on="1"/>
        <pt x="559" y="0" on="1"/>
        <pt x="537" y="0" on="1"/>
      </contour>
      <contour>
        <pt x="77" y="500" on="1"/>
        <pt x="99" y="500" on="1"/>
        <pt x="99" y="0" on="1"/>
        <pt x="77" y="0" on="1"/>
      </contour>
      <contour>
        <pt x="307" y="344" on="1"/>
        <pt x="307" y="409" on="0"/>
        <pt x="251" y="486" on="0"/>
        <pt x="206" y="486" on="1"/>
        <pt x="157" y="486" on="0"/>
        <pt x="99" y="411" on="0"/>
        <pt x="99" y="346" on="1"/>
        <pt x="83" y="346" on="1"/>
        <pt x="83" y="396" on="0"/>
        <pt x="115" y="469" on="0"/>
        <pt x="173" y="507" on="0"/>
        <pt x="210" y="507" on="1"/>
        <pt x="264" y="507" on="0"/>
        <pt x="329" y="421" on="0"/>
        <pt x="329" y="347" on="1"/>
        <pt x="329" y="0" on="1"/>
        <pt x="307" y="0" on="1"/>
      </contour>
    </TTGlyph>
    <TTGlyph name="n" xMin="77" yMin="0" xMax="338" yMax="507">
      <contour>
        <pt x="77" y="500" on="1"/>
        <pt x="99" y="500" on="1"/>
        <pt x="99" y="0" on="1"/>
        <pt x="77" y="0" on="1"/>
      </contour>
      <contour>
        <pt x="316" y="354" on="1"/>
        <pt x="316" y="416" on="0"/>
        <pt x="260" y="486" on="0"/>
        <pt x="210" y="486" on="1"/>
        <pt x="159" y="486" on="0"/>
        <pt x="99" y="411" on="0"/>
        <pt x="99" y="346" on="1"/>
        <pt x="85" y="346" on="1"/>
        <pt x="85" y="422" on="0"/>
        <pt x="154" y="507" on="0"/>
        <pt x="213" y="507" on="1"/>
        <pt x="252" y="507" on="0"/>
        <pt x="308" y="471" on="0"/>
        <pt x="338" y="404" on="0"/>
        <pt x="338" y="357" on="1"/>
        <pt x="338" y="0" on="1"/>
        <pt x="316" y="0" on="1"/>
      </contour>
    </TTGlyph>
    <TTGlyph name="numbersign" xMin="70" yMin="9" xMax="500" yMax="677">
      <contour>
        <pt x="435" y="677" on="1"/>
        <pt x="458" y="675" on="1"/>
        <pt x="358" y="9" on="1"/>
        <pt x="336" y="11" on="1"/>
      </contour>
      <contour>
        <pt x="216" y="677" on="1"/>
        <pt x="238" y="675" on="1"/>
        <pt x="139" y="9" on="1"/>
        <pt x="117" y="11" on="1"/>
      </contour>
      <contour>
        <pt x="101" y="468" on="1"/>
        <pt x="500" y="468" on="1"/>
        <pt x="500" y="447" on="1"/>
        <pt x="101" y="447" on="1"/>
      </contour>
      <contour>
        <pt x="70" y="238" on="1"/>
        <pt x="469" y="238" on="1"/>
        <pt x="469" y="217" on="1"/>
        <pt x="70" y="217" on="1"/>
      </contour>
    </TTGlyph>
    <TTGlyph name="o" xMin="63" yMin="-8" xMax="332" yMax="508">
      <contour>
        <pt x="138" y="-8" on="0"/>
        <pt x="63" y="73" on="0"/>
        <pt x="63" y="135" on="1"/>
        <pt x="63" y="161" on="0"/>
        <pt x="63" y="212" on="0"/>
        <pt x="63" y="246" on="0"/>
        <pt x="63" y="250" on="1"/>
        <pt x="63" y="279" on="0"/>
        <pt x="63" y="336" on="0"/>
        <pt x="63" y="365" on="1"/>
        <pt x="63" y="427" on="0"/>
        <pt x="138" y="508" on="0"/>
        <pt x="197" y="508" on="1"/>
        <pt x="257" y="508" on="0"/>
        <pt x="332" y="428" on="0"/>
        <pt x="332" y="365" on="1"/>
        <pt x="332" y="342" on="0"/>
        <pt x="332" y="295" on="0"/>
        <pt x="332" y="272" on="1"/>
        <pt x="332" y="267" on="0"/>
        <pt x="332" y="255" on="0"/>
        <pt x="332" y="250" on="1"/>
        <pt x="332" y="245" on="0"/>
        <pt x="332" y="233" on="0"/>
        <pt x="332" y="228" on="1"/>
        <pt x="332" y="205" on="0"/>
        <pt x="332" y="158" on="0"/>
        <pt x="332" y="135" on="1"/>
        <pt x="332" y="72" on="0"/>
        <pt x="257" y="-8" on="0"/>
        <pt x="197" y="-8" on="1"/>
      </contour>
      <contour>
        <pt x="247" y="13" on="0"/>
        <pt x="310" y="81" on="0"/>
        <pt x="310" y="135" on="1"/>
        <pt x="310" y="158" on="0"/>
        <pt x="310" y="206" on="0"/>
        <pt x="310" y="243" on="0"/>
        <pt x="310" y="264" on="0"/>
        <pt x="310" y="270" on="1"/>
        <pt x="310" y="294" on="0"/>
        <pt x="310" y="342" on="0"/>
        <pt x="310" y="365" on="1"/>
        <pt x="310" y="419" on="0"/>
        <pt x="247" y="487" on="0"/>
        <pt x="197" y="487" on="1"/>
        <pt x="147" y="487" on="0"/>
        <pt x="85" y="419" on="0"/>
        <pt x="85" y="365" on="1"/>
        <pt x="85" y="336" on="0"/>
        <pt x="85" y="279" on="0"/>
        <pt x="85" y="250" on="1"/>
        <pt x="85" y="221" on="0"/>
        <pt x="85" y="164" on="0"/>
        <pt x="85" y="135" on="1"/>
        <pt x="85" y="81" on="0"/>
        <pt x="147" y="13" on="0"/>
        <pt x="197" y="13" on="1"/>
      </contour>
    </TTGlyph>
    <TTGlyph name="ocircumflex" xMin="63" yMin="-8" xMax="332" yMax="700">
      <contour>
        <pt x="138" y="-8" on="0"/>
        <pt x="63" y="73" on="0"/>
        <pt x="63" y="135" on="1"/>
        <pt x="63" y="161" on="0"/>
        <pt x="63" y="212" on="0"/>
        <pt x="63" y="246" on="0"/>
        <pt x="63" y="250" on="1"/>
        <pt x="63" y="279" on="0"/>
        <pt x="63" y="336" on="0"/>
        <pt x="63" y="365" on="1"/>
        <pt x="63" y="427" on="0"/>
        <pt x="138" y="508" on="0"/>
        <pt x="197" y="508" on="1"/>
        <pt x="257" y="508" on="0"/>
        <pt x="332" y="428" on="0"/>
        <pt x="332" y="365" on="1"/>
        <pt x="332" y="342" on="0"/>
        <pt x="332" y="295" on="0"/>
        <pt x="332" y="257" on="0"/>
        <pt x="332" y="235" on="0"/>
        <pt x="332" y="228" on="1"/>
        <pt x="332" y="205" on="0"/>
        <pt x="332" y="158" on="0"/>
        <pt x="332" y="135" on="1"/>
        <pt x="332" y="72" on="0"/>
        <pt x="257" y="-8" on="0"/>
        <pt x="197" y="-8" on="1"/>
      </contour>
      <contour>
        <pt x="247" y="13" on="0"/>
        <pt x="310" y="81" on="0"/>
        <pt x="310" y="135" on="1"/>
        <pt x="310" y="158" on="0"/>
        <pt x="310" y="206" on="0"/>
        <pt x="310" y="243" on="0"/>
        <pt x="310" y="264" on="0"/>
        <pt x="310" y="270" on="1"/>
        <pt x="310" y="294" on="0"/>
        <pt x="310" y="342" on="0"/>
        <pt x="310" y="365" on="1"/>
        <pt x="310" y="419" on="0"/>
        <pt x="247" y="487" on="0"/>
        <pt x="197" y="487" on="1"/>
        <pt x="147" y="487" on="0"/>
        <pt x="85" y="419" on="0"/>
        <pt x="85" y="365" on="1"/>
        <pt x="85" y="336" on="0"/>
        <pt x="85" y="279" on="0"/>
        <pt x="85" y="250" on="1"/>
        <pt x="85" y="221" on="0"/>
        <pt x="85" y="164" on="0"/>
        <pt x="85" y="135" on="1"/>
        <pt x="85" y="81" on="0"/>
        <pt x="147" y="13" on="0"/>
        <pt x="197" y="13" on="1"/>
      </contour>
      <contour>
        <pt x="183" y="700" on="1"/>
        <pt x="209" y="700" on="1"/>
        <pt x="288" y="581" on="1"/>
        <pt x="256" y="581" on="1"/>
        <pt x="197" y="675" on="1"/>
        <pt x="137" y="581" on="1"/>
        <pt x="106" y="581" on="1"/>
      </contour>
    </TTGlyph>
    <TTGlyph name="oe" xMin="63" yMin="-8" xMax="579" yMax="508">
      <contour>
        <pt x="138" y="-8" on="0"/>
        <pt x="63" y="73" on="0"/>
        <pt x="63" y="135" on="1"/>
        <pt x="63" y="161" on="0"/>
        <pt x="63" y="212" on="0"/>
        <pt x="63" y="246" on="0"/>
        <pt x="63" y="258" on="0"/>
        <pt x="63" y="262" on="1"/>
        <pt x="63" y="288" on="0"/>
        <pt x="63" y="339" on="0"/>
        <pt x="63" y="365" on="1"/>
        <pt x="63" y="427" on="0"/>
        <pt x="138" y="508" on="0"/>
        <pt x="197" y="508" on="1"/>
        <pt x="235" y="508" on="0"/>
        <pt x="293" y="474" on="0"/>
        <pt x="327" y="414" on="0"/>
        <pt x="331" y="375" on="1"/>
        <pt x="332" y="373" on="0"/>
        <pt x="332" y="367" on="0"/>
        <pt x="332" y="365" on="1"/>
        <pt x="333" y="346" on="0"/>
        <pt x="333" y="307" on="0"/>
        <pt x="332" y="288" on="1"/>
        <pt x="332" y="278" on="0"/>
        <pt x="332" y="260" on="0"/>
        <pt x="332" y="250" on="1"/>
        <pt x="332" y="240" on="0"/>
        <pt x="332" y="222" on="0"/>
        <pt x="332" y="212" on="1"/>
        <pt x="333" y="193" on="0"/>
        <pt x="333" y="154" on="0"/>
        <pt x="332" y="135" on="1"/>
        <pt x="330" y="93" on="0"/>
        <pt x="296" y="29" on="0"/>
        <pt x="236" y="-8" on="0"/>
        <pt x="197" y="-8" on="1"/>
      </contour>
      <contour>
        <pt x="247" y="13" on="0"/>
        <pt x="310" y="81" on="0"/>
        <pt x="310" y="135" on="1"/>
        <pt x="310" y="158" on="0"/>
        <pt x="310" y="206" on="0"/>
        <pt x="310" y="243" on="0"/>
        <pt x="310" y="264" on="0"/>
        <pt x="310" y="270" on="1"/>
        <pt x="310" y="294" on="0"/>
        <pt x="310" y="342" on="0"/>
        <pt x="310" y="365" on="1"/>
        <pt x="310" y="419" on="0"/>
        <pt x="247" y="487" on="0"/>
        <pt x="197" y="487" on="1"/>
        <pt x="147" y="487" on="0"/>
        <pt x="85" y="419" on="0"/>
        <pt x="85" y="365" on="1"/>
        <pt x="85" y="336" on="0"/>
        <pt x="85" y="279" on="0"/>
        <pt x="85" y="250" on="1"/>
        <pt x="85" y="221" on="0"/>
        <pt x="85" y="164" on="0"/>
        <pt x="85" y="135" on="1"/>
        <pt x="85" y="81" on="0"/>
        <pt x="147" y="13" on="0"/>
        <pt x="197" y="13" on="1"/>
      </contour>
      <contour>
        <pt x="405" y="-8" on="0"/>
        <pt x="346" y="29" on="0"/>
        <pt x="312" y="93" on="0"/>
        <pt x="310" y="135" on="0"/>
        <pt x="310" y="135" on="1"/>
        <pt x="309" y="154" on="0"/>
        <pt x="309" y="193" on="0"/>
        <pt x="310" y="212" on="1"/>
        <pt x="310" y="222" on="0"/>
        <pt x="310" y="240" on="0"/>
        <pt x="310" y="250" on="1"/>
        <pt x="310" y="260" on="0"/>
        <pt x="310" y="278" on="0"/>
        <pt x="310" y="288" on="1"/>
        <pt x="309" y="307" on="0"/>
        <pt x="309" y="346" on="0"/>
        <pt x="310" y="365" on="1"/>
        <pt x="310" y="367" on="0"/>
        <pt x="310" y="372" on="0"/>
        <pt x="311" y="374" on="1"/>
        <pt x="315" y="413" on="0"/>
        <pt x="349" y="474" on="0"/>
        <pt x="407" y="508" on="0"/>
        <pt x="444" y="508" on="1"/>
        <pt x="504" y="508" on="0"/>
        <pt x="579" y="428" on="0"/>
        <pt x="579" y="365" on="1"/>
        <pt x="579" y="336" on="0"/>
        <pt x="579" y="279" on="0"/>
        <pt x="579" y="249" on="1"/>
        <pt x="324" y="249" on="1"/>
        <pt x="324" y="267" on="1"/>
        <pt x="566" y="267" on="1"/>
        <pt x="557" y="261" on="1"/>
        <pt x="557" y="283" on="0"/>
        <pt x="557" y="337" on="0"/>
        <pt x="557" y="365" on="1"/>
        <pt x="557" y="419" on="0"/>
        <pt x="494" y="487" on="0"/>
        <pt x="444" y="487" on="1"/>
        <pt x="394" y="487" on="0"/>
        <pt x="332" y="419" on="0"/>
        <pt x="332" y="365" on="1"/>
        <pt x="332" y="336" on="0"/>
        <pt x="332" y="279" on="0"/>
        <pt x="332" y="250" on="1"/>
        <pt x="332" y="221" on="0"/>
        <pt x="332" y="164" on="0"/>
        <pt x="332" y="135" on="1"/>
        <pt x="332" y="81" on="0"/>
        <pt x="394" y="13" on="0"/>
        <pt x="444" y="13" on="1"/>
        <pt x="487" y="13" on="0"/>
        <pt x="547" y="65" on="0"/>
        <pt x="555" y="108" on="1"/>
        <pt x="577" y="109" on="1"/>
        <pt x="569" y="57" on="0"/>
        <pt x="497" y="-8" on="0"/>
        <pt x="444" y="-8" on="1"/>
      </contour>
    </TTGlyph>
    <TTGlyph name="p" xMin="84" yMin="-200" xMax="351" yMax="508">
      <contour>
        <pt x="106" y="500" on="1"/>
        <pt x="106" y="-200" on="1"/>
        <pt x="84" y="-200" on="1"/>
        <pt x="84" y="500" on="1"/>
      </contour>
      <contour>
        <pt x="277" y="508" on="0"/>
        <pt x="351" y="428" on="0"/>
        <pt x="351" y="365" on="1"/>
        <pt x="351" y="340" on="0"/>
        <pt x="351" y="289" on="0"/>
        <pt x="351" y="254" on="0"/>
        <pt x="351" y="241" on="0"/>
        <pt x="351" y="237" on="1"/>
        <pt x="351" y="212" on="0"/>
        <pt x="351" y="161" on="0"/>
        <pt x="351" y="135" on="1"/>
        <pt x="351" y="72" on="0"/>
        <pt x="277" y="-8" on="0"/>
        <pt x="217" y="-8" on="1"/>
        <pt x="179" y="-8" on="0"/>
        <pt x="121" y="29" on="0"/>
        <pt x="90" y="94" on="0"/>
        <pt x="90" y="135" on="1"/>
        <pt x="90" y="151" on="0"/>
        <pt x="90" y="183" on="0"/>
        <pt x="90" y="199" on="1"/>
        <pt x="90" y="212" on="0"/>
        <pt x="90" y="237" on="0"/>
        <pt x="90" y="259" on="0"/>
        <pt x="90" y="263" on="1"/>
        <pt x="90" y="289" on="0"/>
        <pt x="90" y="340" on="0"/>
        <pt x="90" y="365" on="1"/>
        <pt x="90" y="428" on="0"/>
        <pt x="160" y="508" on="0"/>
        <pt x="217" y="508" on="1"/>
      </contour>
      <contour>
        <pt x="167" y="487" on="0"/>
        <pt x="106" y="419" on="0"/>
        <pt x="106" y="365" on="1"/>
        <pt x="106" y="336" on="0"/>
        <pt x="106" y="279" on="0"/>
        <pt x="106" y="250" on="1"/>
        <pt x="106" y="221" on="0"/>
        <pt x="106" y="164" on="0"/>
        <pt x="106" y="135" on="1"/>
        <pt x="106" y="81" on="0"/>
        <pt x="167" y="13" on="0"/>
        <pt x="215" y="13" on="1"/>
        <pt x="265" y="13" on="0"/>
        <pt x="329" y="81" on="0"/>
        <pt x="329" y="135" on="1"/>
        <pt x="329" y="164" on="0"/>
        <pt x="329" y="221" on="0"/>
        <pt x="329" y="250" on="1"/>
        <pt x="329" y="279" on="0"/>
        <pt x="329" y="336" on="0"/>
        <pt x="329" y="365" on="1"/>
        <pt x="329" y="419" on="0"/>
        <pt x="265" y="487" on="0"/>
        <pt x="215" y="487" on="1"/>
      </contour>
    </TTGlyph>
    <TTGlyph name="parenleft" xMin="-5" yMin="-113" xMax="94" yMax="766">
      <contour>
        <pt x="37" y="-40" on="0"/>
        <pt x="-5" y="198" on="0"/>
        <pt x="-5" y="320" on="1"/>
        <pt x="-5" y="447" on="0"/>
        <pt x="38" y="692" on="0"/>
        <pt x="73" y="766" on="1"/>
        <pt x="94" y="766" on="1"/>
        <pt x="73" y="717" on="0"/>
        <pt x="39" y="573" on="0"/>
        <pt x="21" y="405" on="0"/>
        <pt x="21" y="322" on="1"/>
        <pt x="21" y="241" on="0"/>
        <pt x="39" y="76" on="0"/>
        <pt x="73" y="-65" on="0"/>
        <pt x="94" y="-113" on="1"/>
        <pt x="70" y="-113" on="1"/>
      </contour>
    </TTGlyph>
    <TTGlyph name="parenright" xMin="65" yMin="-113" xMax="164" yMax="766">
      <contour>
        <pt x="122" y="693" on="0"/>
        <pt x="164" y="455" on="0"/>
        <pt x="164" y="333" on="1"/>
        <pt x="164" y="206" on="0"/>
        <pt x="121" y="-39" on="0"/>
        <pt x="86" y="-113" on="1"/>
        <pt x="65" y="-113" on="1"/>
        <pt x="86" y="-64" on="0"/>
        <pt x="120" y="80" on="0"/>
        <pt x="138" y="248" on="0"/>
        <pt x="138" y="331" on="1"/>
        <pt x="138" y="412" on="0"/>
        <pt x="120" y="577" on="0"/>
        <pt x="86" y="718" on="0"/>
        <pt x="65" y="766" on="1"/>
        <pt x="89" y="766" on="1"/>
      </contour>
    </TTGlyph>
    <TTGlyph name="percent" xMin="91" yMin="-10" xMax="701" yMax="710">
      <contour>
        <pt x="573" y="700" on="1"/>
        <pt x="595" y="700" on="1"/>
        <pt x="218" y="0" on="1"/>
        <pt x="196" y="0" on="1"/>
      </contour>
      <contour>
        <pt x="538" y="-10" on="0"/>
        <pt x="478" y="25" on="0"/>
        <pt x="444" y="86" on="0"/>
        <pt x="444" y="122" on="1"/>
        <pt x="444" y="158" on="0"/>
        <pt x="478" y="218" on="0"/>
        <pt x="538" y="253" on="0"/>
        <pt x="573" y="253" on="1"/>
        <pt x="608" y="253" on="0"/>
        <pt x="667" y="218" on="0"/>
        <pt x="701" y="157" on="0"/>
        <pt x="701" y="122" on="1"/>
        <pt x="701" y="86" on="0"/>
        <pt x="667" y="25" on="0"/>
        <pt x="608" y="-10" on="0"/>
        <pt x="573" y="-10" on="1"/>
      </contour>
      <contour>
        <pt x="617" y="11" on="0"/>
        <pt x="679" y="76" on="0"/>
        <pt x="679" y="122" on="1"/>
        <pt x="679" y="168" on="0"/>
        <pt x="617" y="232" on="0"/>
        <pt x="573" y="232" on="1"/>
        <pt x="528" y="232" on="0"/>
        <pt x="466" y="168" on="0"/>
        <pt x="466" y="122" on="1"/>
        <pt x="466" y="75" on="0"/>
        <pt x="528" y="11" on="0"/>
        <pt x="573" y="11" on="1"/>
      </contour>
      <contour>
        <pt x="185" y="447" on="0"/>
        <pt x="125" y="482" on="0"/>
        <pt x="91" y="543" on="0"/>
        <pt x="91" y="579" on="1"/>
        <pt x="91" y="615" on="0"/>
        <pt x="125" y="675" on="0"/>
        <pt x="185" y="710" on="0"/>
        <pt x="220" y="710" on="1"/>
        <pt x="255" y="710" on="0"/>
        <pt x="314" y="675" on="0"/>
        <pt x="348" y="614" on="0"/>
        <pt x="348" y="579" on="1"/>
        <pt x="348" y="543" on="0"/>
        <pt x="314" y="482" on="0"/>
        <pt x="255" y="447" on="0"/>
        <pt x="220" y="447" on="1"/>
      </contour>
      <contour>
        <pt x="264" y="468" on="0"/>
        <pt x="326" y="533" on="0"/>
        <pt x="326" y="579" on="1"/>
        <pt x="326" y="625" on="0"/>
        <pt x="264" y="689" on="0"/>
        <pt x="220" y="689" on="1"/>
        <pt x="175" y="689" on="0"/>
        <pt x="113" y="625" on="0"/>
        <pt x="113" y="579" on="1"/>
        <pt x="113" y="532" on="0"/>
        <pt x="175" y="468" on="0"/>
        <pt x="220" y="468" on="1"/>
      </contour>
    </TTGlyph>
    <TTGlyph name="period" xMin="49" yMin="7" xMax="117" yMax="88">
      <contour>
        <pt x="69" y="7" on="0"/>
        <pt x="49" y="31" on="0"/>
        <pt x="49" y="48" on="1"/>
        <pt x="49" y="59" on="0"/>
        <pt x="58" y="77" on="0"/>
        <pt x="74" y="88" on="0"/>
        <pt x="83" y="88" on="1"/>
        <pt x="92" y="88" on="0"/>
        <pt x="108" y="77" on="0"/>
        <pt x="117" y="59" on="0"/>
        <pt x="117" y="48" on="1"/>
        <pt x="117" y="31" on="0"/>
        <pt x="97" y="7" on="0"/>
        <pt x="83" y="7" on="1"/>
      </contour>
    </TTGlyph>
    <TTGlyph name="plus" xMin="38" yMin="140" xMax="406" yMax="508">
      <contour>
        <pt x="212" y="508" on="1"/>
        <pt x="232" y="508" on="1"/>
        <pt x="232" y="140" on="1"/>
        <pt x="212" y="140" on="1"/>
      </contour>
      <contour>
        <pt x="38" y="334" on="1"/>
        <pt x="406" y="334" on="1"/>
        <pt x="406" y="314" on="1"/>
        <pt x="38" y="314" on="1"/>
      </contour>
    </TTGlyph>
    <TTGlyph name="q" xMin="63" yMin="-200" xMax="330" yMax="508">
      <contour>
        <pt x="330" y="-200" on="1"/>
        <pt x="308" y="-200" on="1"/>
        <pt x="308" y="500" on="1"/>
        <pt x="330" y="500" on="1"/>
      </contour>
      <contour>
        <pt x="254" y="508" on="0"/>
        <pt x="324" y="428" on="0"/>
        <pt x="324" y="365" on="1"/>
        <pt x="324" y="340" on="0"/>
        <pt x="324" y="289" on="0"/>
        <pt x="324" y="254" on="0"/>
        <pt x="324" y="250" on="1"/>
        <pt x="324" y="237" on="0"/>
        <pt x="324" y="212" on="0"/>
        <pt x="324" y="199" on="1"/>
        <pt x="324" y="183" on="0"/>
        <pt x="324" y="151" on="0"/>
        <pt x="324" y="135" on="1"/>
        <pt x="324" y="94" on="0"/>
        <pt x="293" y="29" on="0"/>
        <pt x="235" y="-8" on="0"/>
        <pt x="197" y="-8" on="1"/>
        <pt x="137" y="-8" on="0"/>
        <pt x="63" y="72" on="0"/>
        <pt x="63" y="135" on="1"/>
        <pt x="63" y="161" on="0"/>
        <pt x="63" y="212" on="0"/>
        <pt x="63" y="246" on="0"/>
        <pt x="63" y="259" on="0"/>
        <pt x="63" y="263" on="1"/>
        <pt x="63" y="289" on="0"/>
        <pt x="63" y="340" on="0"/>
        <pt x="63" y="365" on="1"/>
        <pt x="63" y="428" on="0"/>
        <pt x="137" y="508" on="0"/>
        <pt x="197" y="508" on="1"/>
      </contour>
      <contour>
        <pt x="149" y="487" on="0"/>
        <pt x="85" y="419" on="0"/>
        <pt x="85" y="365" on="1"/>
        <pt x="85" y="336" on="0"/>
        <pt x="85" y="279" on="0"/>
        <pt x="85" y="250" on="1"/>
        <pt x="85" y="221" on="0"/>
        <pt x="85" y="164" on="0"/>
        <pt x="85" y="135" on="1"/>
        <pt x="85" y="81" on="0"/>
        <pt x="149" y="13" on="0"/>
        <pt x="199" y="13" on="1"/>
        <pt x="247" y="13" on="0"/>
        <pt x="308" y="81" on="0"/>
        <pt x="308" y="135" on="1"/>
        <pt x="308" y="164" on="0"/>
        <pt x="308" y="221" on="0"/>
        <pt x="308" y="250" on="1"/>
        <pt x="308" y="279" on="0"/>
        <pt x="308" y="336" on="0"/>
        <pt x="308" y="365" on="1"/>
        <pt x="308" y="419" on="0"/>
        <pt x="247" y="487" on="0"/>
        <pt x="199" y="487" on="1"/>
      </contour>
    </TTGlyph>
    <TTGlyph name="question" xMin="35" yMin="5" xMax="284" yMax="709">
      <contour>
        <pt x="135" y="271" on="1"/>
        <pt x="135" y="298" on="0"/>
        <pt x="150" y="340" on="0"/>
        <pt x="173" y="371" on="0"/>
        <pt x="193" y="393" on="1"/>
        <pt x="227" y="429" on="0"/>
        <pt x="262" y="495" on="0"/>
        <pt x="262" y="549" on="1"/>
        <pt x="262" y="612" on="0"/>
        <pt x="206" y="688" on="0"/>
        <pt x="161" y="688" on="1"/>
        <pt x="114" y="688" on="0"/>
        <pt x="57" y="612" on="0"/>
        <pt x="57" y="550" on="1"/>
        <pt x="57" y="500" on="1"/>
        <pt x="35" y="500" on="1"/>
        <pt x="35" y="550" on="1"/>
        <pt x="35" y="597" on="0"/>
        <pt x="67" y="669" on="0"/>
        <pt x="124" y="709" on="0"/>
        <pt x="161" y="709" on="1"/>
        <pt x="198" y="709" on="0"/>
        <pt x="253" y="669" on="0"/>
        <pt x="284" y="595" on="0"/>
        <pt x="284" y="546" on="1"/>
        <pt x="284" y="502" on="0"/>
        <pt x="263" y="438" on="0"/>
        <pt x="234" y="397" on="0"/>
        <pt x="210" y="370" on="1"/>
        <pt x="184" y="342" on="0"/>
        <pt x="159" y="301" on="0"/>
        <pt x="159" y="271" on="1"/>
        <pt x="159" y="185" on="1"/>
        <pt x="135" y="185" on="1"/>
      </contour>
      <contour>
        <pt x="135" y="5" on="0"/>
        <pt x="116" y="29" on="0"/>
        <pt x="116" y="46" on="1"/>
        <pt x="116" y="62" on="0"/>
        <pt x="135" y="86" on="0"/>
        <pt x="149" y="86" on="1"/>
        <pt x="163" y="86" on="0"/>
        <pt x="183" y="62" on="0"/>
        <pt x="183" y="46" on="1"/>
        <pt x="183" y="29" on="0"/>
        <pt x="163" y="5" on="0"/>
        <pt x="149" y="5" on="1"/>
      </contour>
    </TTGlyph>
    <TTGlyph name="quotedbl" xMin="28" yMin="500" xMax="127" yMax="692">
      <contour>
        <pt x="102" y="692" on="1"/>
        <pt x="127" y="692" on="1"/>
        <pt x="124" y="500" on="1"/>
        <pt x="104" y="500" on="1"/>
      </contour>
      <contour>
        <pt x="28" y="692" on="1"/>
        <pt x="53" y="692" on="1"/>
        <pt x="50" y="500" on="1"/>
        <pt x="31" y="500" on="1"/>
      </contour>
    </TTGlyph>
    <TTGlyph name="quotesingle" xMin="28" yMin="507" xMax="53" yMax="697">
      <contour>
        <pt x="28" y="697" on="1"/>
        <pt x="53" y="697" on="1"/>
        <pt x="50" y="507" on="1"/>
        <pt x="31" y="507" on="1"/>
      </contour>
    </TTGlyph>
    <TTGlyph name="r" xMin="77" yMin="0" xMax="256" yMax="504">
      <contour>
        <pt x="77" y="500" on="1"/>
        <pt x="99" y="500" on="1"/>
        <pt x="99" y="0" on="1"/>
        <pt x="77" y="0" on="1"/>
      </contour>
      <contour>
        <pt x="86" y="332" on="0"/>
        <pt x="86" y="345" on="0"/>
        <pt x="87" y="351" on="1"/>
        <pt x="90" y="397" on="0"/>
        <pt x="122" y="466" on="0"/>
        <pt x="173" y="504" on="0"/>
        <pt x="206" y="504" on="1"/>
        <pt x="223" y="504" on="0"/>
        <pt x="245" y="497" on="0"/>
        <pt x="256" y="489" on="1"/>
        <pt x="246" y="466" on="1"/>
        <pt x="237" y="473" on="0"/>
        <pt x="218" y="479" on="0"/>
        <pt x="203" y="479" on="1"/>
        <pt x="173" y="479" on="0"/>
        <pt x="126" y="439" on="0"/>
        <pt x="99" y="369" on="0"/>
        <pt x="99" y="325" on="1"/>
        <pt x="86" y="325" on="1"/>
      </contour>
    </TTGlyph>
    <TTGlyph name="s" xMin="54" yMin="-4" xMax="310" yMax="504">
      <contour>
        <pt x="146" y="-4" on="0"/>
        <pt x="87" y="27" on="0"/>
        <pt x="54" y="82" on="0"/>
        <pt x="54" y="116" on="1"/>
        <pt x="54" y="130" on="1"/>
        <pt x="76" y="130" on="1"/>
        <pt x="76" y="116" on="1"/>
        <pt x="76" y="88" on="0"/>
        <pt x="102" y="43" on="0"/>
        <pt x="151" y="17" on="0"/>
        <pt x="184" y="17" on="1"/>
        <pt x="231" y="17" on="0"/>
        <pt x="288" y="75" on="0"/>
        <pt x="288" y="123" on="1"/>
        <pt x="288" y="152" on="0"/>
        <pt x="266" y="192" on="0"/>
        <pt x="230" y="219" on="0"/>
        <pt x="204" y="231" on="1"/>
        <pt x="197" y="234" on="0"/>
        <pt x="183" y="240" on="0"/>
        <pt x="176" y="243" on="1"/>
        <pt x="137" y="259" on="0"/>
        <pt x="88" y="288" on="0"/>
        <pt x="56" y="339" on="0"/>
        <pt x="56" y="378" on="1"/>
        <pt x="56" y="435" on="0"/>
        <pt x="126" y="504" on="0"/>
        <pt x="182" y="504" on="1"/>
        <pt x="220" y="504" on="0"/>
        <pt x="277" y="471" on="0"/>
        <pt x="308" y="414" on="0"/>
        <pt x="308" y="379" on="1"/>
        <pt x="308" y="366" on="1"/>
        <pt x="287" y="366" on="1"/>
        <pt x="287" y="379" on="1"/>
        <pt x="287" y="423" on="0"/>
        <pt x="228" y="483" on="0"/>
        <pt x="181" y="483" on="1"/>
        <pt x="135" y="483" on="0"/>
        <pt x="78" y="425" on="0"/>
        <pt x="78" y="378" on="1"/>
        <pt x="78" y="342" on="0"/>
        <pt x="113" y="297" on="0"/>
        <pt x="145" y="281" on="1"/>
        <pt x="154" y="276" on="0"/>
        <pt x="172" y="268" on="0"/>
        <pt x="184" y="263" on="0"/>
        <pt x="185" y="263" on="1"/>
        <pt x="226" y="245" on="0"/>
        <pt x="276" y="216" on="0"/>
        <pt x="310" y="164" on="0"/>
        <pt x="310" y="123" on="1"/>
        <pt x="310" y="66" on="0"/>
        <pt x="241" y="-4" on="0"/>
        <pt x="184" y="-4" on="1"/>
      </contour>
    </TTGlyph>
    <TTGlyph name="semicolon" xMin="49" yMin="-60" xMax="117" yMax="451">
      <contour>
        <pt x="74" y="147" on="1"/>
        <pt x="97" y="147" on="1"/>
        <pt x="69" y="-60" on="1"/>
        <pt x="49" y="-60" on="1"/>
      </contour>
      <contour>
        <pt x="69" y="370" on="0"/>
        <pt x="49" y="394" on="0"/>
        <pt x="49" y="411" on="1"/>
        <pt x="49" y="422" on="0"/>
        <pt x="58" y="440" on="0"/>
        <pt x="74" y="451" on="0"/>
        <pt x="83" y="451" on="1"/>
        <pt x="92" y="451" on="0"/>
        <pt x="108" y="440" on="0"/>
        <pt x="117" y="422" on="0"/>
        <pt x="117" y="411" on="1"/>
        <pt x="117" y="394" on="0"/>
        <pt x="97" y="370" on="0"/>
        <pt x="83" y="370" on="1"/>
      </contour>
    </TTGlyph>
    <TTGlyph name="slash" xMin="28" yMin="0" xMax="207" yMax="700">
      <contour>
        <pt x="185" y="700" on="1"/>
        <pt x="207" y="700" on="1"/>
        <pt x="50" y="0" on="1"/>
        <pt x="28" y="0" on="1"/>
      </contour>
    </TTGlyph>
    <TTGlyph name="t" xMin="35" yMin="0" xMax="215" yMax="626">
      <contour>
        <pt x="142" y="0" on="0"/>
        <pt x="91" y="53" on="0"/>
        <pt x="91" y="124" on="1"/>
        <pt x="91" y="626" on="1"/>
        <pt x="114" y="626" on="1"/>
        <pt x="114" y="123" on="1"/>
        <pt x="114" y="65" on="0"/>
        <pt x="152" y="21" on="0"/>
        <pt x="208" y="21" on="0"/>
        <pt x="215" y="21" on="1"/>
        <pt x="214" y="0" on="0"/>
        <pt x="214" y="0" on="1"/>
        <pt x="208" y="0" on="0"/>
        <pt x="197" y="0" on="0"/>
        <pt x="192" y="0" on="1"/>
      </contour>
      <contour>
        <pt x="35" y="500" on="1"/>
        <pt x="215" y="500" on="1"/>
        <pt x="215" y="479" on="1"/>
        <pt x="35" y="479" on="1"/>
      </contour>
    </TTGlyph>
    <TTGlyph name="u" xMin="70" yMin="-7" xMax="331" yMax="500">
      <contour>
        <pt x="158" y="-7" on="0"/>
        <pt x="101" y="25" on="0"/>
        <pt x="70" y="90" on="0"/>
        <pt x="70" y="138" on="1"/>
        <pt x="70" y="500" on="1"/>
        <pt x="92" y="500" on="1"/>
        <pt x="92" y="143" on="1"/>
        <pt x="92" y="79" on="0"/>
        <pt x="147" y="14" on="0"/>
        <pt x="198" y="14" on="1"/>
        <pt x="249" y="14" on="0"/>
        <pt x="309" y="89" on="0"/>
        <pt x="309" y="154" on="1"/>
        <pt x="326" y="154" on="1"/>
        <pt x="326" y="102" on="0"/>
        <pt x="295" y="30" on="0"/>
        <pt x="237" y="-7" on="0"/>
        <pt x="198" y="-7" on="1"/>
      </contour>
      <contour>
        <pt x="309" y="500" on="1"/>
        <pt x="331" y="500" on="1"/>
        <pt x="331" y="0" on="1"/>
        <pt x="309" y="0" on="1"/>
      </contour>
    </TTGlyph>
    <TTGlyph name="ucircumflex" xMin="70" yMin="-7" xMax="331" yMax="700">
      <contour>
        <pt x="138" y="-7" on="0"/>
        <pt x="70" y="67" on="0"/>
        <pt x="70" y="138" on="1"/>
        <pt x="70" y="500" on="1"/>
        <pt x="92" y="500" on="1"/>
        <pt x="92" y="143" on="1"/>
        <pt x="92" y="79" on="0"/>
        <pt x="147" y="14" on="0"/>
        <pt x="198" y="14" on="1"/>
        <pt x="249" y="14" on="0"/>
        <pt x="309" y="89" on="0"/>
        <pt x="309" y="154" on="1"/>
        <pt x="326" y="154" on="1"/>
        <pt x="326" y="102" on="0"/>
        <pt x="295" y="30" on="0"/>
        <pt x="237" y="-7" on="0"/>
        <pt x="198" y="-7" on="1"/>
      </contour>
      <contour>
        <pt x="309" y="500" on="1"/>
        <pt x="331" y="500" on="1"/>
        <pt x="331" y="0" on="1"/>
        <pt x="309" y="0" on="1"/>
      </contour>
      <contour>
        <pt x="186" y="700" on="1"/>
        <pt x="212" y="700" on="1"/>
        <pt x="291" y="581" on="1"/>
        <pt x="259" y="581" on="1"/>
        <pt x="200" y="675" on="1"/>
        <pt x="140" y="581" on="1"/>
        <pt x="109" y="581" on="1"/>
      </contour>
    </TTGlyph>
    <TTGlyph name="udieresis" xMin="70" yMin="-7" xMax="331" yMax="700">
      <contour>
        <pt x="138" y="-7" on="0"/>
        <pt x="70" y="67" on="0"/>
        <pt x="70" y="138" on="1"/>
        <pt x="70" y="500" on="1"/>
        <pt x="92" y="500" on="1"/>
        <pt x="92" y="143" on="1"/>
        <pt x="92" y="79" on="0"/>
        <pt x="147" y="14" on="0"/>
        <pt x="198" y="14" on="1"/>
        <pt x="249" y="14" on="0"/>
        <pt x="309" y="89" on="0"/>
        <pt x="309" y="154" on="1"/>
        <pt x="326" y="154" on="1"/>
        <pt x="326" y="102" on="0"/>
        <pt x="295" y="30" on="0"/>
        <pt x="237" y="-7" on="0"/>
        <pt x="198" y="-7" on="1"/>
      </contour>
      <contour>
        <pt x="309" y="500" on="1"/>
        <pt x="331" y="500" on="1"/>
        <pt x="331" y="0" on="1"/>
        <pt x="309" y="0" on="1"/>
      </contour>
      <contour>
        <pt x="247" y="619" on="0"/>
        <pt x="227" y="643" on="0"/>
        <pt x="227" y="660" on="1"/>
        <pt x="227" y="671" on="0"/>
        <pt x="236" y="689" on="0"/>
        <pt x="252" y="700" on="0"/>
        <pt x="261" y="700" on="1"/>
        <pt x="270" y="700" on="0"/>
        <pt x="286" y="689" on="0"/>
        <pt x="295" y="671" on="0"/>
        <pt x="295" y="660" on="1"/>
        <pt x="295" y="643" on="0"/>
        <pt x="275" y="619" on="0"/>
        <pt x="261" y="619" on="1"/>
      </contour>
      <contour>
        <pt x="141" y="619" on="0"/>
        <pt x="121" y="643" on="0"/>
        <pt x="121" y="660" on="1"/>
        <pt x="121" y="671" on="0"/>
        <pt x="130" y="689" on="0"/>
        <pt x="146" y="700" on="0"/>
        <pt x="155" y="700" on="1"/>
        <pt x="164" y="700" on="0"/>
        <pt x="180" y="689" on="0"/>
        <pt x="189" y="671" on="0"/>
        <pt x="189" y="660" on="1"/>
        <pt x="189" y="643" on="0"/>
        <pt x="169" y="619" on="0"/>
        <pt x="155" y="619" on="1"/>
      </contour>
    </TTGlyph>
    <TTGlyph name="ugrave" xMin="70" yMin="-7" xMax="331" yMax="700">
      <contour>
        <pt x="138" y="-7" on="0"/>
        <pt x="70" y="67" on="0"/>
        <pt x="70" y="138" on="1"/>
        <pt x="70" y="500" on="1"/>
        <pt x="92" y="500" on="1"/>
        <pt x="92" y="143" on="1"/>
        <pt x="92" y="79" on="0"/>
        <pt x="147" y="14" on="0"/>
        <pt x="198" y="14" on="1"/>
        <pt x="249" y="14" on="0"/>
        <pt x="309" y="89" on="0"/>
        <pt x="309" y="154" on="1"/>
        <pt x="326" y="154" on="1"/>
        <pt x="326" y="102" on="0"/>
        <pt x="295" y="30" on="0"/>
        <pt x="237" y="-7" on="0"/>
        <pt x="198" y="-7" on="1"/>
      </contour>
      <contour>
        <pt x="309" y="500" on="1"/>
        <pt x="331" y="500" on="1"/>
        <pt x="331" y="0" on="1"/>
        <pt x="309" y="0" on="1"/>
      </contour>
      <contour>
        <pt x="190" y="569" on="1"/>
        <pt x="115" y="700" on="1"/>
        <pt x="139" y="700" on="1"/>
        <pt x="212" y="569" on="1"/>
      </contour>
    </TTGlyph>
    <TTGlyph name="underscore" xMin="28" yMin="0" xMax="317" yMax="22">
      <contour>
        <pt x="28" y="22" on="1"/>
        <pt x="317" y="22" on="1"/>
        <pt x="317" y="0" on="1"/>
        <pt x="28" y="0" on="1"/>
      </contour>
    </TTGlyph>
    <TTGlyph name="v" xMin="28" yMin="0" xMax="311" yMax="500">
      <contour>
        <pt x="28" y="500" on="1"/>
        <pt x="53" y="500" on="1"/>
        <pt x="170" y="33" on="1"/>
        <pt x="286" y="500" on="1"/>
        <pt x="311" y="500" on="1"/>
        <pt x="182" y="0" on="1"/>
        <pt x="159" y="0" on="1"/>
      </contour>
    </TTGlyph>
    <TTGlyph name="w" xMin="28" yMin="0" xMax="485" yMax="500">
      <contour>
        <pt x="28" y="500" on="1"/>
        <pt x="50" y="500" on="1"/>
        <pt x="147" y="27" on="1"/>
        <pt x="244" y="500" on="1"/>
        <pt x="266" y="500" on="1"/>
        <pt x="364" y="27" on="1"/>
        <pt x="463" y="500" on="1"/>
        <pt x="485" y="500" on="1"/>
        <pt x="375" y="0" on="1"/>
        <pt x="353" y="0" on="1"/>
        <pt x="255" y="461" on="1"/>
        <pt x="159" y="0" on="1"/>
        <pt x="136" y="0" on="1"/>
      </contour>
    </TTGlyph>
    <TTGlyph name="x" xMin="21" yMin="0" xMax="310" yMax="500">
      <contour>
        <pt x="155" y="250" on="1"/>
        <pt x="21" y="500" on="1"/>
        <pt x="46" y="500" on="1"/>
        <pt x="166" y="267" on="1"/>
        <pt x="286" y="500" on="1"/>
        <pt x="310" y="500" on="1"/>
        <pt x="177" y="250" on="1"/>
        <pt x="310" y="0" on="1"/>
        <pt x="286" y="0" on="1"/>
        <pt x="166" y="233" on="1"/>
        <pt x="46" y="0" on="1"/>
        <pt x="21" y="0" on="1"/>
      </contour>
    </TTGlyph>
    <TTGlyph name="y" xMin="21" yMin="-200" xMax="308" yMax="500">
      <contour>
        <pt x="42" y="-179" on="1"/>
        <pt x="53" y="-179" on="1"/>
        <pt x="81" y="-178" on="0"/>
        <pt x="112" y="-151" on="0"/>
        <pt x="134" y="-82" on="0"/>
        <pt x="154" y="0" on="1"/>
        <pt x="21" y="500" on="1"/>
        <pt x="44" y="500" on="1"/>
        <pt x="165" y="26" on="1"/>
        <pt x="285" y="500" on="1"/>
        <pt x="308" y="500" on="1"/>
        <pt x="161" y="-62" on="1"/>
        <pt x="145" y="-123" on="0"/>
        <pt x="117" y="-181" on="0"/>
        <pt x="82" y="-200" on="0"/>
        <pt x="53" y="-200" on="1"/>
        <pt x="42" y="-200" on="1"/>
      </contour>
    </TTGlyph>
    <TTGlyph name="z" xMin="44" yMin="0" xMax="312" yMax="500">
      <contour>
        <pt x="44" y="21" on="1"/>
        <pt x="287" y="479" on="1"/>
        <pt x="46" y="479" on="1"/>
        <pt x="46" y="500" on="1"/>
        <pt x="312" y="500" on="1"/>
        <pt x="312" y="479" on="1"/>
        <pt x="69" y="21" on="1"/>
        <pt x="310" y="21" on="1"/>
        <pt x="310" y="0" on="1"/>
        <pt x="44" y="0" on="1"/>
      </contour>
    </TTGlyph>
</ttFont>
